<?xml version="1.0" encoding="utf-8"?>
<!-- Generator: Adobe Illustrator 22.0.0, SVG Export Plug-In . SVG Version: 6.00 Build 0)  -->
<svg version="1.1" id="checkbox_x5F_checked" xmlns="http://www.w3.org/2000/svg" xmlns:xlink="http://www.w3.org/1999/xlink"
	 x="0px" y="0px" viewBox="0 0 16 16" style="enable-background:new 0 0 16 16;" xml:space="preserve">
<g>
	<linearGradient id="SVGID_1_" gradientUnits="userSpaceOnUse" x1="4.4431" y1="4.4431" x2="11.8336" y2="11.8336">
		<stop  offset="0" style="stop-color:#006D00"/>
		<stop  offset="1" style="stop-color:#002D04"/>
	</linearGradient>
	<path style="fill:url(#SVGID_1_);" d="M5.2,13.6c-1.6,0-2.8-1.3-2.8-2.8V5.2c0-1.6,1.3-2.8,2.8-2.8h5.5c1.6,0,2.8,1.3,2.8,2.8v5.5
		c0,1.6-1.3,2.8-2.8,2.8H5.2z"/>
	<path style="fill:#141412;" d="M10.8,2.8c1.3,0,2.4,1.1,2.4,2.4v5.5c0,1.3-1.1,2.4-2.4,2.4H5.2c-1.3,0-2.4-1.1-2.4-2.4V5.2
		c0-1.3,1.1-2.4,2.4-2.4H10.8 M10.8,2H5.2C3.4,2,2,3.4,2,5.2v5.5C2,12.6,3.4,14,5.2,14h5.5c1.8,0,3.2-1.4,3.2-3.2V5.2
		C14,3.4,12.6,2,10.8,2L10.8,2z"/>
</g>
</svg>
