<?xml version="1.0" encoding="utf-8"?>
<!-- Generator: Adobe Illustrator 22.0.0, SVG Export Plug-In . SVG Version: 6.00 Build 0)  -->
<svg version="1.1" id="checkbox_x5F_checked" xmlns="http://www.w3.org/2000/svg" xmlns:xlink="http://www.w3.org/1999/xlink"
	 x="0px" y="0px" viewBox="0 0 16 16" style="enable-background:new 0 0 16 16;" xml:space="preserve">
<g>
	<linearGradient id="SVGID_1_" gradientUnits="userSpaceOnUse" x1="5.0491" y1="5.0491" x2="11.1804" y2="11.1804">
		<stop  offset="0" style="stop-color:#006D00"/>
		<stop  offset="1" style="stop-color:#002D04"/>
	</linearGradient>
	<circle style="fill:url(#SVGID_1_);" cx="8" cy="8" r="5.6"/>
	<path style="fill:#141412;" d="M8,2.8c2.9,0,5.2,2.3,5.2,5.2c0,2.9-2.3,5.2-5.2,5.2c-2.9,0-5.2-2.3-5.2-5.2C2.8,5.1,5.1,2.8,8,2.8
		 M8,2L8,2C4.7,2,2,4.7,2,8v0c0,3.3,2.7,6,6,6h0c3.3,0,6-2.7,6-6v0C14,4.7,11.3,2,8,2L8,2z"/>
</g>
</svg>
