<?xml version="1.0" encoding="utf-8"?>
<!-- Generator: Adobe Illustrator 23.0.1, SVG Export Plug-In . SVG Version: 6.00 Build 0)  -->
<svg version="1.1" id="vol_x5F_recovery" xmlns="http://www.w3.org/2000/svg" xmlns:xlink="http://www.w3.org/1999/xlink" x="0px"
	 y="0px" viewBox="0 0 128 128" style="enable-background:new 0 0 128 128;" xml:space="preserve">
<g>
	<polygon style="fill:#3C0000;" points="118.5,47.7 82.3,47.7 82.3,11.5 47.7,11.5 47.7,47.7 11.5,47.7 11.5,82.3 47.7,82.3 
		47.7,118.5 82.3,118.5 82.3,82.3 118.5,82.3 	"/>
	<polygon style="fill:#786C00;" points="116.5,45.7 80.3,45.7 80.3,9.5 45.7,9.5 45.7,45.7 9.5,45.7 9.5,80.3 45.7,80.3 45.7,116.5 
		80.3,116.5 80.3,80.3 116.5,80.3 	"/>
	<linearGradient id="SVGID_1_" gradientUnits="userSpaceOnUse" x1="28.6259" y1="28.6259" x2="99.3741" y2="99.374">
		<stop  offset="0" style="stop-color:#780000"/>
		<stop  offset="1" style="stop-color:#500000"/>
	</linearGradient>
	<polygon style="fill:url(#SVGID_1_);" points="117.5,46.7 81.3,46.7 81.3,10.5 46.7,10.5 46.7,46.7 10.5,46.7 10.5,81.3 46.7,81.3 
		46.7,117.5 81.3,117.5 81.3,81.3 117.5,81.3 	"/>
</g>
</svg>
