<?xml version="1.0" encoding="utf-8"?>
<!-- Generator: Adobe Illustrator 23.0.1, SVG Export Plug-In . SVG Version: 6.00 Build 0)  -->
<svg version="1.1" id="vol_x5F_optical" xmlns="http://www.w3.org/2000/svg" xmlns:xlink="http://www.w3.org/1999/xlink" x="0px"
	 y="0px" viewBox="0 0 128 128" style="enable-background:new 0 0 128 128;" xml:space="preserve">
<g id="Base_Disc">
	<g>
		<ellipse style="fill:#006000;" cx="64" cy="64" rx="64" ry="64"/>
		
			<linearGradient id="SVGID_1_" gradientUnits="userSpaceOnUse" x1="18.7266" y1="-1564.6311" x2="31.9973" y2="-1577.9016" gradientTransform="matrix(1 0 0 -1 0 -1545.89)">
			<stop  offset="0" style="stop-color:#6DCE55"/>
			<stop  offset="0.2286" style="stop-color:#62C24C"/>
			<stop  offset="0.402" style="stop-color:#62C24C"/>
			<stop  offset="0.8213" style="stop-color:#046403"/>
			<stop  offset="0.889" style="stop-color:#006000"/>
			<stop  offset="1" style="stop-color:#006000"/>
		</linearGradient>
		<path style="fill:url(#SVGID_1_);" d="M0,64C0,28.6,28.6,0,64,0C53.6,10.4,0,64,0,64z"/>
	</g>
	
		<linearGradient id="SVGID_2_" gradientUnits="userSpaceOnUse" x1="20.5581" y1="2339.9004" x2="107.499" y2="2252.9595" gradientTransform="matrix(1 0 0 1 0 -2232.4299)">
		<stop  offset="0" style="stop-color:#6DCE55"/>
		<stop  offset="0.2286" style="stop-color:#62C24C"/>
		<stop  offset="0.402" style="stop-color:#62C24C"/>
		<stop  offset="0.8213" style="stop-color:#046403"/>
		<stop  offset="0.889" style="stop-color:#006000"/>
		<stop  offset="1" style="stop-color:#006000"/>
	</linearGradient>
	<ellipse style="fill:url(#SVGID_2_);" cx="64" cy="64" rx="61.5" ry="61.5"/>
	<g>
		<ellipse style="fill:#006000;" cx="64" cy="64" rx="61.1" ry="61.1"/>
		
			<linearGradient id="SVGID_3_" gradientUnits="userSpaceOnUse" x1="-26.2676" y1="-1590.1803" x2="-13.6219" y2="-1602.826" gradientTransform="matrix(1 0 0 -1 47.1 -1569.39)">
			<stop  offset="0" style="stop-color:#6DCE55"/>
			<stop  offset="0.2286" style="stop-color:#62C24C"/>
			<stop  offset="0.402" style="stop-color:#62C24C"/>
			<stop  offset="0.8213" style="stop-color:#046403"/>
			<stop  offset="0.889" style="stop-color:#006000"/>
			<stop  offset="1" style="stop-color:#006000"/>
		</linearGradient>
		<path style="fill:url(#SVGID_3_);" d="M3,64C3,30.3,30.3,2.9,64,2.9C54.1,12.9,3,64,3,64z"/>
	</g>
	<ellipse style="fill:#006000;" cx="64" cy="64" rx="60.3" ry="60.3"/>
	
		<linearGradient id="SVGID_4_" gradientUnits="userSpaceOnUse" x1="122.7453" y1="-1623.3473" x2="82.1821" y2="-1613.9824" gradientTransform="matrix(1 0 0 -1 0 -1545.89)">
		<stop  offset="0" style="stop-color:#6DCE55"/>
		<stop  offset="0.2286" style="stop-color:#62C24C"/>
		<stop  offset="0.402" style="stop-color:#62C24C"/>
		<stop  offset="0.8213" style="stop-color:#046403"/>
		<stop  offset="0.889" style="stop-color:#006000"/>
		<stop  offset="1" style="stop-color:#006000"/>
	</linearGradient>
	<path style="fill:url(#SVGID_4_);" d="M95,12.4L70.2,124c30.4-3.1,54.1-28.7,54.1-60C124.3,42.1,112.5,22.9,95,12.4z"/>
	<ellipse id="Black_Fill" style="fill:#141414;" cx="64" cy="64" rx="59.4" ry="59.4"/>
</g>
<g id="Black_Fill_with_Highlights" style="display:none;">
	<ellipse id="Black_Fill_2_" style="display:inline;fill:#141414;" cx="64" cy="64" rx="58.2" ry="58.2"/>
	
		<radialGradient id="SVGID_5_" cx="110.1855" cy="2340.0735" r="111.9356" gradientTransform="matrix(0.5715 0 0 0.5718 1.0548 -1273.7814)" gradientUnits="userSpaceOnUse">
		<stop  offset="0" style="stop-color:#141414;stop-opacity:0"/>
		<stop  offset="0.7909" style="stop-color:#141414;stop-opacity:0"/>
		<stop  offset="0.8921" style="stop-color:#C8C8C8;stop-opacity:0.2"/>
		<stop  offset="1" style="stop-color:#000000;stop-opacity:0"/>
	</radialGradient>
	<ellipse style="display:inline;fill:url(#SVGID_5_);" cx="64" cy="64" rx="58.2" ry="58.2"/>
</g>
<g id="Disc">
	<circle style="fill:none;" cx="64" cy="64" r="45.4"/>
	<path style="fill:#C8C8C8;" d="M82,22.9c-22.7-10-49.2,0.4-59.2,23.1c-10,22.7,0.4,49.2,23.1,59.2c22.7,10,49.2-0.4,59.2-23.1
		C115.1,59.3,104.7,32.8,82,22.9z M69.2,66.3c-1.3,2.9-4.6,4.2-7.5,2.9c-2.9-1.3-4.2-4.6-2.9-7.5c1.3-2.9,4.6-4.2,7.5-2.9
		C69.2,60,70.5,63.4,69.2,66.3z"/>
	<g>
		<path style="fill:#DCDCDC;" d="M68.4,54c-5.5-2.4-12,0.1-14.4,5.6c-2.4,5.5,0.1,12,5.6,14.4c5.5,2.4,12-0.1,14.4-5.6
			C76.4,62.9,73.9,56.4,68.4,54z M61.2,70.4c-3.6-1.6-5.2-5.7-3.6-9.3c1.6-3.6,5.7-5.2,9.3-3.6c3.6,1.6,5.2,5.7,3.6,9.3
			C68.9,70.4,64.7,72,61.2,70.4z"/>
		<path style="fill:#DCDCDC;" d="M66.5,58.3c-3.2-1.4-6.9,0.1-8.2,3.2c-1.4,3.2,0.1,6.9,3.2,8.2c3.2,1.4,6.9-0.1,8.2-3.2
			C71.1,63.3,69.7,59.7,66.5,58.3z M69.2,66.3c-1.3,2.9-4.6,4.2-7.5,2.9c-2.9-1.3-4.2-4.6-2.9-7.5c1.3-2.9,4.6-4.2,7.5-2.9
			C69.2,60,70.5,63.4,69.2,66.3z"/>
		<path style="fill:#DCDCDC;" d="M69.1,52.4c-6.4-2.8-13.9,0.1-16.7,6.5c-2.8,6.4,0.1,13.9,6.5,16.7s13.9-0.1,16.7-6.5
			C78.4,62.7,75.5,55.2,69.1,52.4z M59.3,74.7c-5.9-2.6-8.6-9.5-6-15.4c2.6-5.9,9.5-8.6,15.4-6s8.6,9.5,6,15.4
			C72.1,74.6,65.2,77.3,59.3,74.7z"/>
	</g>
</g>
<linearGradient id="SVGID_6_" gradientUnits="userSpaceOnUse" x1="32.2292" y1="32.2292" x2="95.7708" y2="95.7708">
	<stop  offset="0" style="stop-color:#97E643;stop-opacity:0.6"/>
	<stop  offset="1" style="stop-color:#808080"/>
</linearGradient>
<path style="fill:url(#SVGID_6_);" d="M82,22.9c-22.7-10-49.2,0.4-59.2,23.1c-10,22.7,0.4,49.2,23.1,59.2
	c22.7,10,49.2-0.4,59.2-23.1C115.1,59.3,104.7,32.8,82,22.9z M69.2,66.3c-1.3,2.9-4.6,4.2-7.5,2.9c-2.9-1.3-4.2-4.6-2.9-7.5
	c1.3-2.9,4.6-4.2,7.5-2.9C69.2,60,70.5,63.4,69.2,66.3z"/>
<radialGradient id="GreenToBlackHighlight_1_" cx="1369.0481" cy="390.7979" r="194.2981" gradientTransform="matrix(0.3366 0.4604 -0.354 0.259 -290.8843 -706.8511)" gradientUnits="userSpaceOnUse">
	<stop  offset="0" style="stop-color:#B4FFB4;stop-opacity:0.3"/>
	<stop  offset="0.1467" style="stop-color:#B2F7B2;stop-opacity:0.26"/>
	<stop  offset="0.3732" style="stop-color:#AEE1AE;stop-opacity:0.15"/>
	<stop  offset="0.6497" style="stop-color:#141414;stop-opacity:0.2"/>
	<stop  offset="0.8517" style="stop-color:#141414;stop-opacity:0.7"/>
	<stop  offset="1" style="stop-color:#141414"/>
</radialGradient>
<radialGradient id="GreenToBlackHighlight_2_" cx="107.5855" cy="2338.8054" r="97.2441" gradientTransform="matrix(0.5702 0 0 0.5704 0 -1273.1553)" gradientUnits="userSpaceOnUse">
	<stop  offset="0" style="stop-color:#B4FFB4"/>
	<stop  offset="0.66" style="stop-color:#A0A0A0;stop-opacity:0"/>
	<stop  offset="1" style="stop-color:#A0A0A0;stop-opacity:0"/>
</radialGradient>
<path id="GreenToBlackHighlight" style="fill:url(#GreenToBlackHighlight_1_);stroke:url(#GreenToBlackHighlight_2_);stroke-width:0.5963;stroke-miterlimit:10;" d="
	M116.2,47.7C113.4,25.8,85.5,5.8,66.7,5.8C33.1,5.8,5.9,33.1,5.9,66.7c0,23.9,28.9,58.8,68.1,47C97.1,106.7,121.1,86.7,116.2,47.7z"
	/>
<g id="TopShadows">
	
		<radialGradient id="Highlights_Lower_Grey_2_" cx="111.8" cy="2337.7002" r="111.8429" gradientTransform="matrix(0.5702 0 0 0.5704 0 -1273.1553)" gradientUnits="userSpaceOnUse">
		<stop  offset="0" style="stop-color:#141414;stop-opacity:0"/>
		<stop  offset="0.8974" style="stop-color:#C8C8C8;stop-opacity:0"/>
		<stop  offset="0.9385" style="stop-color:#DCDCDC;stop-opacity:0.25"/>
		<stop  offset="0.9707" style="stop-color:#C8C8C8;stop-opacity:0"/>
	</radialGradient>
	<ellipse id="Highlights_Lower_Grey_1_" style="fill:url(#Highlights_Lower_Grey_2_);" cx="63.5" cy="64" rx="58.2" ry="58.2"/>
	
		<radialGradient id="Shadow_Inner_Top_Left_2_" cx="118.3" cy="2352.2002" r="133.2067" gradientTransform="matrix(0.5702 0 0 0.5704 0 -1273.1553)" gradientUnits="userSpaceOnUse">
		<stop  offset="0.7281" style="stop-color:#141414;stop-opacity:0"/>
		<stop  offset="0.9793" style="stop-color:#969696"/>
	</radialGradient>
	<ellipse id="Shadow_Inner_Top_Left_1_" style="fill:url(#Shadow_Inner_Top_Left_2_);" cx="63.5" cy="64" rx="58.2" ry="58.2"/>
	
		<radialGradient id="Shadow_Inner_Top_Right_2_" cx="104.3" cy="2352.2002" r="133.2067" gradientTransform="matrix(0.5702 0 0 0.5704 0 -1273.1553)" gradientUnits="userSpaceOnUse">
		<stop  offset="0.7281" style="stop-color:#141414;stop-opacity:0"/>
		<stop  offset="0.9793" style="stop-color:#969696"/>
	</radialGradient>
	<ellipse id="Shadow_Inner_Top_Right_1_" style="fill:url(#Shadow_Inner_Top_Right_2_);" cx="63.5" cy="64" rx="58.2" ry="58.2"/>
	
		<radialGradient id="Shadow_Inner_Top_2_" cx="111.3" cy="2375.2002" r="162.3549" gradientTransform="matrix(0.5702 0 0 0.5704 0 -1273.1553)" gradientUnits="userSpaceOnUse">
		<stop  offset="0.7103" style="stop-color:#141414;stop-opacity:0"/>
		<stop  offset="0.8712" style="stop-color:#787878"/>
	</radialGradient>
	<ellipse id="Shadow_Inner_Top_1_" style="fill:url(#Shadow_Inner_Top_2_);" cx="63.5" cy="64" rx="58.2" ry="58.2"/>
</g>
</svg>
