<?xml version="1.0" encoding="utf-8"?>
<!-- Generator: Adobe Illustrator 23.0.1, SVG Export Plug-In . SVG Version: 6.00 Build 0)  -->
<svg version="1.1" id="vol_x5F_internal_x5F_ext3" xmlns="http://www.w3.org/2000/svg" xmlns:xlink="http://www.w3.org/1999/xlink"
	 x="0px" y="0px" viewBox="0 0 128 128" style="enable-background:new 0 0 128 128;" xml:space="preserve">
<g id="Connector_Area">
	<path style="fill:#28322E;" d="M118,110.8c-1.2-1.5-0.9,0.5-0.8-10.8l1,0.6L118,110.8z"/>
	<rect x="97.3" y="106.6" style="fill:#1E2423;" width="8.7" height="2.2"/>
	<path style="fill:#0B0C0E;" d="M96.3,107.6c2.2,1,2.2,0.9,2.9,0.9V107h0.9v1.3h2.5v-1.6h0.9v1.6h1.1c0.1-0.1,0.4-1.3,0.6-1.3
		c1.2,0-4.4-0.3,12.2,0.9v-7.4l-21.1,0L96.3,107.6z"/>
	<path style="fill:#21211A;" d="M13.7,108.3l2.7,0.1c6.4-2.4,4.5-2,8.7-2l-0.1,1.8l35.2-0.1v0.9l1.8,0l0-2.4l4.6,0l0,2.4l2,0
		c-0.1-1-2.5-0.7,16.7-0.7v-2h3.3c6.5,2.4,4.6,2,8.6,2l0.2-7.1l-83.2,0.1C13.7,106.8,13.8,105.2,13.7,108.3z"/>
	<rect x="96.6" y="100.8" style="fill:#44533E;" width="20" height="2"/>
	<path style="fill:#050A08;" d="M12.5,110.2c2.2-6.2,1.8-3.8,1.6-10.3l-2.9,0.5L12.5,110.2z"/>
	<path style="fill:#222727;" d="M89.3,109.5c-0.5-1.3-0.4,0-0.7-6.7l4.6-0.1l-0.1,6.5L89.3,109.5"/>
	<rect x="89.5" y="108.3" style="fill:#ABBCC3;" width="3.5" height="0.6"/>
	<path style="fill:#D8D8CC;" d="M101.1,104.3c0,0.7-1.1,0.7-1.1,0C100,103.5,101.1,103.5,101.1,104.3z"/>
	<path style="fill:#D8D8CC;" d="M104.8,104.3c0,0.7-1.1,0.7-1.1,0C103.6,103.5,104.8,103.5,104.8,104.3z"/>
	<path style="fill:#222727;" d="M92.9,108.9c-0.6-0.7-0.4,0.1-0.4-4.8C93.2,104.1,93.1,103.4,92.9,108.9"/>
	<path style="fill:#1B1F22;" d="M67.2,107.8c-0.5-0.4-0.4,0.3-0.4-4l-0.3-2l26.6,0l0,1.2L85,103l0,1.4l-17.4,0.2L67.2,107.8z"/>
	<rect x="62.2" y="101.9" style="fill:#5E6461;" width="4.5" height="1.6"/>
	<rect x="85.3" y="103.5" style="fill:#5E6461;" width="2.8" height="1.4"/>
	<path style="fill:#1B1F22;" d="M61.6,107.8c0.5-0.4,0.3,0.2,0.3-3.8c0.5-0.6,0.4-0.2,0.4-2H23.7c-1.4,2.6-5.4,1.9,37.5,2.7
		L61.6,107.8z"/>
	<polygon style="fill:#292E2E;" points="17.2,108.6 21.5,108.6 23.1,104.1 17,104.4 	"/>
	<path d="M17.1,105.9l4.4,0.1l0.3-1.2c1.1-0.1,0.5,0.5,2.3-2.9l-7.5-0.2L17.1,105.9z"/>
	<polygon style="fill:#0D1715;" points="17.3,103.4 21,103.3 21.5,101.9 17.2,101.9 	"/>
	<polygon style="fill:#5E696E;" points="25,105 25,105.8 60.6,105.8 60.6,107.8 61.6,107.8 61.6,105 	"/>
	<polygon style="fill:#5E696E;" points="67.2,105 67.2,107.8 68.2,107.8 68.2,105.9 85,105.9 85,105 	"/>
	<path style="fill:#ABBCC3;" d="M17.6,108.6c0.5-0.8-0.3-0.6,4.1-0.6C21.4,108.8,22,108.6,17.6,108.6z"/>
	<rect x="25" y="104" style="fill:#ABBCC3;" width="36.6" height="0.9"/>
	<rect x="67.2" y="104" style="fill:#ABBCC3;" width="17.8" height="0.9"/>
	<linearGradient id="SVGID_1_" gradientUnits="userSpaceOnUse" x1="22.3556" y1="109.2808" x2="22.3556" y2="103.7467">
		<stop  offset="0" style="stop-color:#535B5B"/>
		<stop  offset="0.2551" style="stop-color:#474E4F"/>
		<stop  offset="0.6155" style="stop-color:#3D4344"/>
		<stop  offset="1" style="stop-color:#3A3F40"/>
	</linearGradient>
	<path style="fill:url(#SVGID_1_);" d="M21.4,109.5c2.1-5.8,1.8-4.6,1.8-6C21.1,109.4,21.4,108.3,21.4,109.5z"/>
	<path style="fill:#222A27;" d="M17.8,104c0.1,4.6,0.2,3.8-0.2,4.5C17.4,103.6,17.3,104.3,17.8,104z"/>
	<path style="fill:#222A27;" d="M17.6,102.1c0.1,1.1,0.1,0.8-0.2,1.3C17.3,101.8,17.2,102.1,17.6,102.1z"/>
	<path style="fill:#5E696E;" d="M13.1,100.4c0,1.2,0.1,0.9-0.4,0.9c0,1.8-0.1,1.5,0.4,1.5l0.6,2.9h2.6c0.4,3.7,0.4,3.1,0.4,3.6h4.7
		v-0.9l-3.9,0l-0.1-4.3H21v-0.9h-3.6l-0.1-1.3h75.5v1.2l-3.3,0l0,1h3.3v4.6h-3.4l0,0.6h4.7v-3.4h2.6v-5.6H13.1z"/>
	<path style="fill:#3A3F40;" d="M23.3,103.5H25v1h-1.7C23.3,104.5,23.3,103.5,23.3,103.5z"/>
	<path style="fill:#030301;" d="M97.3,109.2c22.1,0,19.9-0.2,19.9,0.5C95.1,109.7,97.3,109.9,97.3,109.2z"/>
	<path style="fill:#B9BDB8;" d="M97.3,108.7c22.1,0,19.9-0.3,19.9,0.7C95.1,109.4,97.3,109.7,97.3,108.7z"/>
	<rect x="105.9" y="107.2" style="fill:#142C1B;" width="11.2" height="1.5"/>
</g>
<g id="Case">
	<linearGradient id="SVGID_2_" gradientUnits="userSpaceOnUse" x1="1.5321" y1="101.9745" x2="124.3117" y2="101.9745">
		<stop  offset="0" style="stop-color:#050508"/>
		<stop  offset="1.903045e-02" style="stop-color:#0D1613"/>
		<stop  offset="4.146634e-02" style="stop-color:#212928"/>
		<stop  offset="0.5111" style="stop-color:#212928"/>
		<stop  offset="0.9758" style="stop-color:#212928"/>
		<stop  offset="0.9861" style="stop-color:#101617"/>
		<stop  offset="1" style="stop-color:#020402"/>
	</linearGradient>
	<path style="fill:url(#SVGID_2_);" d="M12.6,110.2c-0.3-3.2-0.5-7.7-0.5-8.3c0-0.6-0.5-1.1,0.5-1.1c114.6,0,105.3-0.7,105.3,1.3
		c0,1.3,0,8.7,0,8.7s3.9,0,5,0s2.5-0.8,2.7-2.6c0.3-1.9,0.5-14.2,0.5-14.6c0-0.4-0.9-0.5-1.2-0.5c-0.9,0.1-124-0.1-124-0.1
		c-0.2-0.2,0.6,13.3,0.8,15c0.1,0.8,1.5,1.6,2.6,1.9S12.6,110.2,12.6,110.2z"/>
	<linearGradient id="SVGID_3_" gradientUnits="userSpaceOnUse" x1="63.5782" y1="92.6836" x2="63.5782" y2="36.6081">
		<stop  offset="0" style="stop-color:#535B5B"/>
		<stop  offset="0.2551" style="stop-color:#474E4F"/>
		<stop  offset="0.6155" style="stop-color:#3D4344"/>
		<stop  offset="1" style="stop-color:#3A3F40"/>
	</linearGradient>
	<path style="fill:url(#SVGID_3_);" d="M24.5,36.4C24,37.6,2.3,89.7,1.4,91.6S0.8,95,4.9,95s116.7,0,118.6,0c1.9,0,3.2,0.4,2.5-2.6
		c-0.7-3-17.3-54-18-55.9c-0.7-1.9-1.6-1.9-3.7-1.9s-74.5,0-76.1,0S25.2,34.7,24.5,36.4z"/>
	<g id="vol_x5F_internal">
		<g id="OCZ_x5F_Branding">
			<g>
				<linearGradient id="SVGID_4_" gradientUnits="userSpaceOnUse" x1="51.5959" y1="64.8557" x2="104.8952" y2="60.1926">
					<stop  offset="0" style="stop-color:#3C464D"/>
					<stop  offset="0.4257" style="stop-color:#3C464D"/>
					<stop  offset="0.7156" style="stop-color:#262C2F"/>
					<stop  offset="1" style="stop-color:#1E2423"/>
				</linearGradient>
				<path style="fill:url(#SVGID_4_);" d="M59.3,82.8c20.9,0,43.6,0,45.1,0c2,0,2.6-0.8,2.2-2.2s-8.1-36.6-8.5-38s-0.9-1.8-2.6-1.8
					c-28.2,0-26.1,0-26.3,0.1c0,0,2.9,4.2-1.6,9s-17,12.7-15.4,20.9C52.1,70.7,53.1,78.5,59.3,82.8"/>
				<linearGradient id="SVGID_5_" gradientUnits="userSpaceOnUse" x1="26.9205" y1="57.9472" x2="66.5091" y2="65.6425">
					<stop  offset="0" style="stop-color:#346A24"/>
					<stop  offset="0.3447" style="stop-color:#70A028"/>
					<stop  offset="0.4917" style="stop-color:#70A028"/>
					<stop  offset="0.7033" style="stop-color:#70A028"/>
					<stop  offset="1" style="stop-color:#346A24"/>
				</linearGradient>
				<path style="fill:url(#SVGID_5_);" d="M59.3,82.8c-18,0-34.6,0-35.3,0c-1.4,0-1.9-0.6-1.5-2s11.9-38.4,12-38.9
					c0.4-1.6,0.9-1.1,34.8-1.1c7,9.6-17.2,15.5-17.2,28.9C52.1,76.9,59.3,82.8,59.3,82.8z"/>
				<path style="fill:#99A5B0;" d="M60.1,57.4C70.6,48.7,73.2,47,70.2,40.8c-0.6,0-1.2,0-1.8,0c2.2,4.1,2.1,6.5-6.7,13.5
					c-9.9,7.8-16,17.4-3.6,28.5c0.8,0,1.6,0,2.4,0C51.7,75.2,49.8,65.9,60.1,57.4z"/>
				<linearGradient id="SVGID_6_" gradientUnits="userSpaceOnUse" x1="80.129" y1="81" x2="80.129" y2="44.693">
					<stop  offset="0" style="stop-color:#90ABA7"/>
					<stop  offset="1" style="stop-color:#787878"/>
				</linearGradient>
				<path style="fill:url(#SVGID_6_);" d="M76.6,80.9c-1.8,0-3.1-1-3.1-2.1c0-1.1-0.4-31.8-0.4-32.6c0-2,3-1.5,9.2-1.5
					c0.9,0,1.8,0.3,2,1.7c0.2,1.3,2.8,31.1,3,32.1c0.3,1.8-1.8,2.5-2.4,2.5C84.2,81,76.6,80.9,76.6,80.9z"/>
				<linearGradient id="SVGID_7_" gradientUnits="userSpaceOnUse" x1="73.5414" y1="63.2331" x2="85.3511" y2="62.5107">
					<stop  offset="0" style="stop-color:#346A24"/>
					<stop  offset="0.3447" style="stop-color:#70A028"/>
					<stop  offset="0.4917" style="stop-color:#70A028"/>
					<stop  offset="0.7033" style="stop-color:#70A028"/>
					<stop  offset="1" style="stop-color:#346A24"/>
				</linearGradient>
				<path style="fill:url(#SVGID_7_);" d="M74.5,78.7c0-1.2-0.4-31.6-0.4-32.2c0-1.4,1.6-1.1,7.3-1.1c1.1,0,1.6,0,1.7,0.9
					s3.2,31.9,3.2,32.4c0,0.7-0.4,1.8-2,1.8C78.3,80.3,74.5,80.9,74.5,78.7z"/>
			</g>
		</g>
	</g>
</g>
<radialGradient id="SVGID_8_" cx="64.484" cy="72.9984" r="23.943" gradientTransform="matrix(1.1697 0 0 0.3602 -10.9451 39.7056)" gradientUnits="userSpaceOnUse">
	<stop  offset="0" style="stop-color:#000000"/>
	<stop  offset="1" style="stop-color:#000000;stop-opacity:0"/>
</radialGradient>
<ellipse style="fill:url(#SVGID_8_);" cx="64.5" cy="66" rx="28" ry="8.6"/>
<g id="icon" transform="translate(-310.7524,-64.25268)">
	
		<radialGradient id="path175_1_" cx="1589.6648" cy="-3055.0464" r="21.1246" gradientTransform="matrix(0.8449 0 0 -0.2263 -966.9329 -561.4911)" gradientUnits="userSpaceOnUse">
		<stop  offset="0" style="stop-color:#3F2600;stop-opacity:0.6"/>
		<stop  offset="1" style="stop-color:#3F2600;stop-opacity:0"/>
	</radialGradient>
	<path id="path175" style="fill:url(#path175_1_);" d="M376,134.8c-9.8,0-17.8-2.1-17.8-4.8l0,0c0-2.6,8-4.8,17.8-4.8
		s17.8,2.1,17.8,4.8C394.7,130,392.2,134.8,376,134.8z"/>
	<path id="path106" d="M366.3,124.9c-1.7-2.5-2.1-10.5,2-15.5c2-2.4,2.5-4,2.6-6.3c0.1-2.5-1.8-10.1,5.4-10.7
		c7.3-0.6,6.9,6.6,6.8,10.4c0,3.2,2.4,5,4,7.5c3,4.6,2.8,12.5-0.6,16.8c-4.2,5.4-7.9,3-10.2,3.2C371.8,130.5,371.6,133,366.3,124.9z
		"/>
	
		<linearGradient id="path113_1_" gradientUnits="userSpaceOnUse" x1="605.608" y1="-190.3107" x2="605.6245" y2="-186.2791" gradientTransform="matrix(-0.9649 -1.291555e-02 3.671997e-02 -2.5569 976.5829 -352.4578)">
		<stop  offset="0" style="stop-color:#FFEED7"/>
		<stop  offset="1" style="stop-color:#BDBFC2"/>
	</linearGradient>
	<path id="path113" style="fill:url(#path113_1_);" d="M383.8,110.8c1.2,1.1,4.5,6.3-0.6,9.5c-1.8,1.1,1.6,5.4,3.3,3.3
		c2.9-3.7,1.1-9.7-0.7-11.8C384.6,110.3,382.8,109.7,383.8,110.8z"/>
	<path id="path111" style="stroke:#000000;stroke-width:0.2877;" d="M383.5,110c2.1,1.6,5.8,7.5,0.4,11.3c-1.8,1.2,1.6,4.9,3.5,3
		c6.6-6.7-0.2-14.3-2.5-16.9C382.7,105.2,380.9,108,383.5,110z"/>
	
		<linearGradient id="path115_1_" gradientUnits="userSpaceOnUse" x1="1618.4154" y1="-551.1644" x2="1618.4972" y2="-549.0397" gradientTransform="matrix(1.0651 -6.167214e-02 -9.445851e-02 -1.6443 -1402.7399 -704.1505)">
		<stop  offset="0" style="stop-color:#FFEED7"/>
		<stop  offset="1" style="stop-color:#BDBFC2"/>
	</linearGradient>
	<path id="path115" style="fill:url(#path115_1_);" d="M374.5,100.5c0.1,3-2.7,3.2-2.9,0.2l0,0C371.4,97.7,374.4,97.6,374.5,100.5
		L374.5,100.5z"/>
	
		<linearGradient id="path116_1_" gradientUnits="userSpaceOnUse" x1="710.5482" y1="-428.2794" x2="710.4969" y2="-426.3261" gradientTransform="matrix(-1.4785 4.042534e-02 -3.886406e-02 -1.9024 1411.8873 -741.0775)">
		<stop  offset="0" style="stop-color:#FFEED7"/>
		<stop  offset="1" style="stop-color:#BDBFC2"/>
	</linearGradient>
	<path id="path116" style="fill:url(#path116_1_);" d="M376,100.6c0.1,3.4,4.1,3.3,4-0.1c0.1,0-0.2-2.6-2.1-2.5
		C376.1,98,375.8,100.6,376,100.6z"/>
	<path id="path117" d="M376.9,100.9c-0.1,1.9,1.8,1.9,1.8,0c0.1,0-0.1-1.4-0.9-1.4C377.1,99.5,376.8,100.9,376.9,100.9z"/>
	<path id="path118" d="M373.7,101c0.1,1.6-1.2,1.7-1.3,0.2l0,0C372.2,99.6,373.5,99.4,373.7,101L373.7,101z"/>
	
		<linearGradient id="path121_1_" gradientUnits="userSpaceOnUse" x1="-724.994" y1="-1928.4189" x2="-725.1358" y2="-1930.891" gradientTransform="matrix(-0.3922 -2.976458e-02 5.731006e-02 -0.5825 203.8546 -1045.0829)">
		<stop  offset="0" style="stop-color:#FFFFFF;stop-opacity:0.65"/>
		<stop  offset="1" style="stop-color:#FFFFFF;stop-opacity:0"/>
	</linearGradient>
	<path id="path121" style="fill:url(#path121_1_);" d="M377.1,100.5c-0.1,1.1,0.9,1.1,1.1,0.1c0.1,0,0-0.8-0.5-0.8
		C377.3,99.7,377,100.5,377.1,100.5z"/>
	
		<linearGradient id="path122_1_" gradientUnits="userSpaceOnUse" x1="2821.8323" y1="-2582.5737" x2="2821.675" y2="-2584.9644" gradientTransform="matrix(0.2914 -3.333031e-02 -5.061034e-02 -0.4881 -580.0726 -1066.4432)">
		<stop  offset="0" style="stop-color:#FFFFFF;stop-opacity:0.65"/>
		<stop  offset="1" style="stop-color:#FFFFFF;stop-opacity:0"/>
	</linearGradient>
	<path id="path122" style="fill:url(#path122_1_);" d="M373.4,100.6c0.1,0.9-0.7,0.9-0.8,0.1c0,0-0.1-0.7,0.3-0.7
		C373.1,100,373.3,100.2,373.4,100.6L373.4,100.6z"/>
	
		<linearGradient id="path128_1_" gradientUnits="userSpaceOnUse" x1="1728.2368" y1="-600.0197" x2="1728.2368" y2="-591.7182" gradientTransform="matrix(1.0161 0 0 -1.5378 -1379.5856 -796.4856)">
		<stop  offset="0" style="stop-color:#FFEED7"/>
		<stop  offset="1" style="stop-color:#BDBFC2"/>
	</linearGradient>
	<path id="path128" style="fill:url(#path128_1_);" d="M369,114.3c1-2.2,3.1-6.2,3.1-9.2c0-2.4,7.2-3,7.8-0.6
		c1.9,7.6,7.8,13.3,3.8,19.9c-2.6,4.3-10.6,7.7-14.9-0.6C367.4,120.9,367.7,117.4,369,114.3z"/>
	
		<linearGradient id="path112_1_" gradientUnits="userSpaceOnUse" x1="1774.7469" y1="-370.2946" x2="1774.8894" y2="-364.3968" gradientTransform="matrix(0.9028 -7.217411e-02 -0.1573 -2.004 -1290.8351 -487.5741)">
		<stop  offset="0" style="stop-color:#FFEED7"/>
		<stop  offset="1" style="stop-color:#BDBFC2"/>
	</linearGradient>
	<path id="path112" style="fill:url(#path112_1_);" d="M368.1,112.6c-0.9,1.6-2.6,5.8,1.7,8.1c4.6,2.4,4.6,7.5-0.9,5.1
		c-5.1-2.1-2.8-10.9-1.4-13C368.3,111.3,369.7,109.5,368.1,112.6z"/>
	<path id="path109" style="stroke:#000000;stroke-width:0.368;" d="M368.8,110.8c-1.4,2.2-4.6,7.4-0.3,10.1c5.8,3.6,4.2,7.1-1.1,3.9
		c-7.5-4.5-0.9-13.5,2.1-17C372.9,104,370.2,108.5,368.8,110.8z"/>
	
		<linearGradient id="path125_1_" gradientUnits="userSpaceOnUse" x1="1457.256" y1="-975.7225" x2="1457.2911" y2="-982.8881" gradientTransform="matrix(1.3995 0 0 -1.14 -1663.672 -1000.3101)">
		<stop  offset="0" style="stop-color:#FFFFFF;stop-opacity:0.8"/>
		<stop  offset="1" style="stop-color:#FFFFFF;stop-opacity:0"/>
	</linearGradient>
	<path id="path125" style="fill:url(#path125_1_);" d="M381.9,115.1c0,2.4-2.4,5.6-6.4,5.6c-7.1,0.1-8.7-10,0.2-10
		C379.1,110.7,381.9,112.7,381.9,115.1z"/>
	
		<linearGradient id="path127_1_" gradientUnits="userSpaceOnUse" x1="1497.4337" y1="-1146.2063" x2="1497.4812" y2="-1149.4895" gradientTransform="matrix(1.2782 0 0 -0.9908 -1538.0889 -1028.776)">
		<stop  offset="0" style="stop-color:#FFFFFF;stop-opacity:0.65"/>
		<stop  offset="1" style="stop-color:#FFFFFF;stop-opacity:0"/>
	</linearGradient>
	<path id="path127" style="fill:url(#path127_1_);" d="M379.7,107.4c-0.1,2.5-1.7,3.1-3.8,3.1c-2.1,0-3.6-0.4-3.8-3.1
		C372.2,103.8,379.7,103.8,379.7,107.4z"/>
	
		<linearGradient id="path129_1_" gradientUnits="userSpaceOnUse" x1="2148.7163" y1="-250.8157" x2="2148.7163" y2="-256.2674" gradientTransform="matrix(0.7146 0 0 -2.1864 -1168.3157 -439.4879)">
		<stop  offset="0" style="stop-color:#FFFFFF;stop-opacity:0.65"/>
		<stop  offset="1" style="stop-color:#FFFFFF;stop-opacity:0"/>
	</linearGradient>
	<path id="path129" style="fill:url(#path129_1_);" d="M367.1,111.3c1.4-2.1,4.2-5.3,0.5,0.4c-3,4.7-1.1,7.7-0.1,8.5
		c2.8,2.5,2.7,4.2,0.5,2.9C363.3,120.4,364.2,115.6,367.1,111.3z"/>
	
		<linearGradient id="path131_1_" gradientUnits="userSpaceOnUse" x1="2173.9119" y1="-251.6206" x2="2173.9114" y2="-256.5546" gradientTransform="matrix(0.7158 0 0 -2.1828 -1169.1567 -441.5067)">
		<stop  offset="0" style="stop-color:#FFFFFF;stop-opacity:0.65"/>
		<stop  offset="1" style="stop-color:#FFFFFF;stop-opacity:0"/>
	</linearGradient>
	<path id="path131" style="fill:url(#path131_1_);" d="M386.8,112.2c-1.2-2.4-4.9-8.6,0.2-1.4c4.7,6.5,1.4,11,0.8,11.5
		c-0.6,0.4-2.6,1.4-2-0.2C386.4,120.4,389.3,117.4,386.8,112.2z"/>
	
		<linearGradient id="path132_1_" gradientUnits="userSpaceOnUse" x1="1518.6205" y1="-880.0577" x2="1517.158" y2="-885.0038" gradientTransform="matrix(1.2644 0 0 -1.2358 -1553.5885 -961.6466)">
		<stop  offset="0" style="stop-color:#FFA63F"/>
		<stop  offset="1" style="stop-color:#FFFF00"/>
	</linearGradient>
	<path id="path132" style="fill:url(#path132_1_);stroke:#E68C3F;stroke-width:1.8402;" d="M366.1,131.4c-3.1-1.6-7.7,0.3-6-4.2
		c0.3-1-0.5-2.5,0.1-3.5c0.6-1.2,2-0.9,2.8-1.7c0.8-0.8,1.3-2.3,2.8-2.1c1.5,0.2,2.5,2,3.5,4.2c0.8,1.6,3.5,3.8,3.3,5.6
		C372.2,132.5,369.1,133,366.1,131.4z"/>
	
		<linearGradient id="path177_1_" gradientUnits="userSpaceOnUse" x1="2176.4409" y1="-1237.952" x2="2170.1626" y2="-1221.3782" gradientTransform="matrix(0.6374 0.2862 0.2249 -0.5793 -722.618 -1214.8164)">
		<stop  offset="0" style="stop-color:#FFEED7"/>
		<stop  offset="1" style="stop-color:#BDBFC2"/>
	</linearGradient>
	<path id="path177" style="fill:url(#path177_1_);" d="M388.7,120.9c-0.5,0.9-2.4,2.3-3.8,1.9c-1.4-0.4-1.9-2.4-1.7-3.9
		c0.2-1.7,1.7-1.8,3.5-1C388.7,118.9,389.3,119.7,388.7,120.9z"/>
	
		<linearGradient id="path133_1_" gradientUnits="userSpaceOnUse" x1="870.3541" y1="-957.8546" x2="869.4307" y2="-964.4792" gradientTransform="matrix(-1.18 0.4273 -0.4706 -1.1534 960.7513 -1352.6298)">
		<stop  offset="0" style="stop-color:#FFA63F"/>
		<stop  offset="1" style="stop-color:#FFFF00"/>
	</linearGradient>
	<path id="path133" style="fill:url(#path133_1_);stroke:#E68C3F;stroke-width:1.8404;" d="M387.7,130.6c2.3-2.8,7.4-2.2,3.9-6
		c-0.7-0.8-0.5-2.6-1.4-3.3c-1-0.9-2.2-0.2-3.3-0.6c-1.1-0.5-2.2-1.5-3.5-0.8s-1.4,2.6-1.6,5c-0.1,1.7-1.7,4.7-0.9,6.2
		C382.3,133.5,385.5,133.2,387.7,130.6z"/>
	
		<linearGradient id="path134_1_" gradientUnits="userSpaceOnUse" x1="890.6232" y1="-1126.9468" x2="894.5873" y2="-1134.1842" gradientTransform="matrix(-0.9524 0.3464 -0.4208 -0.9487 759.8748 -1258.8813)">
		<stop  offset="0" style="stop-color:#FFFFFF;stop-opacity:0.65"/>
		<stop  offset="1" style="stop-color:#FFFFFF;stop-opacity:0"/>
	</linearGradient>
	<path id="path134" style="fill:url(#path134_1_);" d="M386.7,126.9c3.5-5.2,0.9-5.2,0-5.6c-0.9-0.4-1.8-1.2-2.9-0.7
		c-1,0.6-1.1,2.1-1.1,4.1c0,1.4-1.2,3.8-0.5,5.1C383.1,131.4,385.2,129.2,386.7,126.9z"/>
	
		<linearGradient id="path135_1_" gradientUnits="userSpaceOnUse" x1="1699.7941" y1="-1050.989" x2="1700.2521" y2="-1059.647" gradientTransform="matrix(1.0038 -5.226007e-02 1.740863e-02 -1.0463 -1321.7976 -890.0699)">
		<stop  offset="0" style="stop-color:#FFFFFF;stop-opacity:0.65"/>
		<stop  offset="1" style="stop-color:#FFFFFF;stop-opacity:0"/>
	</linearGradient>
	<path id="path135" style="fill:url(#path135_1_);" d="M365.3,127.7c-5.3-3.4-2.8-4.6-2-5.1c1-0.7,1-2,2.1-1.9s1.9,1.6,2.7,3.4
		c0.6,1.3,2.6,3,2.5,4.5C370.4,130.3,367.6,129.1,365.3,127.7z"/>
	<path id="path136" d="M388.5,120.8c-0.4,0.7-2.1,1.9-3.2,1.6c-1.1-0.3-1.7-1.9-1.4-3.2c0.2-1.4,1.4-1.4,3-0.8
		C388.4,119.2,388.9,119.9,388.5,120.8z"/>
	
		<linearGradient id="path137_1_" gradientUnits="userSpaceOnUse" x1="2985.6848" y1="-2271.0791" x2="2989.0083" y2="-2277.6824" gradientTransform="matrix(0.3742 0.1593 0.1209 -0.3224 -457.1353 -1089.1724)">
		<stop  offset="0" style="stop-color:#FFFFFF;stop-opacity:0.65"/>
		<stop  offset="1" style="stop-color:#FFFFFF;stop-opacity:0"/>
	</linearGradient>
	<path id="path137" style="fill:url(#path137_1_);" d="M385.2,121.5c-1.3-0.3-1.9-4,1-2.7C389.2,120.1,385.9,121.7,385.2,121.5z"/>
	
		<linearGradient id="path119_1_" gradientUnits="userSpaceOnUse" x1="1385.6168" y1="-1149.5905" x2="1385.6643" y2="-1154.2249" gradientTransform="matrix(1.5234 0 0 -1.0257 -1735.0798 -1077.0291)">
		<stop  offset="0" style="stop-color:#FFA63F"/>
		<stop  offset="1" style="stop-color:#FFFF00"/>
	</linearGradient>
	<path id="path119" style="fill:url(#path119_1_);stroke:#E68C3F;stroke-width:1.1041;" d="M372.9,102.2c0.6-0.5,1.9-2.1,4.5-0.4
		c0.5,0.3,0.9,0.3,1.8,0.7c1.8,0.7,0.9,2.6-1,3.2c-0.8,0.3-1.6,1.3-3.1,1.2c-1.3-0.1-1.6-0.9-2.4-1.4c-1.4-0.8-1.6-1.9-0.9-2.4
		C372.6,102.5,372.9,102.3,372.9,102.2z"/>
	<path id="path120" style="fill:none;stroke:#E68C3F;stroke-width:0.7361;" d="M379.2,103.7c-0.8,0.1-2.4,1.7-4.2,1.7
		c-1.7,0-2.8-1.6-3-1.6"/>
	
		<linearGradient id="path123_1_" gradientUnits="userSpaceOnUse" x1="1790.2712" y1="-2574.3406" x2="1790.2438" y2="-2579.4873" gradientTransform="matrix(0.7672 0 0 -0.4875 -998.2646 -1153.3275)">
		<stop  offset="0" style="stop-color:#FFFFFF;stop-opacity:0.65"/>
		<stop  offset="1" style="stop-color:#FFFFFF;stop-opacity:0"/>
	</linearGradient>
	<path id="path123" style="fill:url(#path123_1_);" d="M377,102.4c1.4,0.9-1.4,2-2.1,1.9c-0.6-0.1-0.9-0.4-1.3-0.6
		c-0.7-0.4-0.6-0.8-0.3-1.1C374.8,100.9,375.8,101.8,377,102.4z"/>
	
		<linearGradient id="SVGID_9_" gradientUnits="userSpaceOnUse" x1="686.9507" y1="99.4149" x2="686.5553" y2="93.2708" gradientTransform="matrix(1 0 0 -1 -310.7524 192.3627)">
		<stop  offset="0" style="stop-color:#FFFFFF;stop-opacity:0.8"/>
		<stop  offset="1" style="stop-color:#FFFFFF;stop-opacity:0"/>
	</linearGradient>
	<path style="fill:url(#SVGID_9_);" d="M371.4,96.5c-0.1,1.9,1.9,3.3,4.4,3.2c2.5-0.1,4.6-1.8,4.7-3.7
		C380.7,91.4,371.6,92,371.4,96.5z"/>
</g>
</svg>
