<?xml version="1.0" encoding="utf-8"?>
<!-- Generator: Adobe Illustrator 23.0.1, SVG Export Plug-In . SVG Version: 6.00 Build 0)  -->
<svg version="1.1" id="vol_x5F_internal_x5F_hfs" xmlns="http://www.w3.org/2000/svg" xmlns:xlink="http://www.w3.org/1999/xlink"
	 x="0px" y="0px" viewBox="0 0 128 128" style="enable-background:new 0 0 128 128;" xml:space="preserve">
<g id="Connector_Area">
	<path style="fill:#28322E;" d="M118,110.8c-1.2-1.5-0.9,0.5-0.8-10.8l1,0.6L118,110.8z"/>
	<rect x="97.3" y="106.6" style="fill:#1E2423;" width="8.7" height="2.2"/>
	<path style="fill:#0B0C0E;" d="M96.3,107.6c2.2,1,2.2,0.9,2.9,0.9V107h0.9v1.3h2.5v-1.6h0.9v1.6h1.1c0.1-0.1,0.4-1.3,0.6-1.3
		c1.2,0-4.4-0.3,12.2,0.9v-7.4l-21.1,0L96.3,107.6z"/>
	<path style="fill:#21211A;" d="M13.7,108.3l2.7,0.1c6.4-2.4,4.5-2,8.7-2l-0.1,1.8l35.2-0.1v0.9l1.8,0l0-2.4l4.6,0l0,2.4l2,0
		c-0.1-1-2.5-0.7,16.7-0.7v-2h3.3c6.5,2.4,4.6,2,8.6,2l0.2-7.1l-83.2,0.1C13.7,106.8,13.8,105.2,13.7,108.3z"/>
	<rect x="96.6" y="100.8" style="fill:#44533E;" width="20" height="2"/>
	<path style="fill:#050A08;" d="M12.5,110.2c2.2-6.2,1.8-3.8,1.6-10.3l-2.9,0.5L12.5,110.2z"/>
	<path style="fill:#222727;" d="M89.3,109.5c-0.5-1.3-0.4,0-0.7-6.7l4.6-0.1l-0.1,6.5L89.3,109.5"/>
	<rect x="89.5" y="108.3" style="fill:#ABBCC3;" width="3.5" height="0.6"/>
	<path style="fill:#D8D8CC;" d="M101.1,104.3c0,0.7-1.1,0.7-1.1,0C100,103.5,101.1,103.5,101.1,104.3z"/>
	<path style="fill:#D8D8CC;" d="M104.8,104.3c0,0.7-1.1,0.7-1.1,0C103.6,103.5,104.8,103.5,104.8,104.3z"/>
	<path style="fill:#222727;" d="M92.9,108.9c-0.6-0.7-0.4,0.1-0.4-4.8C93.2,104.1,93.1,103.4,92.9,108.9"/>
	<path style="fill:#1B1F22;" d="M67.2,107.8c-0.5-0.4-0.4,0.3-0.4-4l-0.3-2l26.6,0l0,1.2L85,103l0,1.4l-17.4,0.2L67.2,107.8z"/>
	<rect x="62.2" y="101.9" style="fill:#5E6461;" width="4.5" height="1.6"/>
	<rect x="85.3" y="103.5" style="fill:#5E6461;" width="2.8" height="1.4"/>
	<path style="fill:#1B1F22;" d="M61.6,107.8c0.5-0.4,0.3,0.2,0.3-3.8c0.5-0.6,0.4-0.2,0.4-2H23.7c-1.4,2.6-5.4,1.9,37.5,2.7
		L61.6,107.8z"/>
	<polygon style="fill:#292E2E;" points="17.2,108.6 21.5,108.6 23.1,104.1 17,104.4 	"/>
	<path d="M17.1,105.9l4.4,0.1l0.3-1.2c1.1-0.1,0.5,0.5,2.3-2.9l-7.5-0.2L17.1,105.9z"/>
	<polygon style="fill:#0D1715;" points="17.3,103.4 21,103.3 21.5,101.9 17.2,101.9 	"/>
	<polygon style="fill:#5E696E;" points="25,105 25,105.8 60.6,105.8 60.6,107.8 61.6,107.8 61.6,105 	"/>
	<polygon style="fill:#5E696E;" points="67.2,105 67.2,107.8 68.2,107.8 68.2,105.9 85,105.9 85,105 	"/>
	<path style="fill:#ABBCC3;" d="M17.6,108.6c0.5-0.8-0.3-0.6,4.1-0.6C21.4,108.8,22,108.6,17.6,108.6z"/>
	<rect x="25" y="104" style="fill:#ABBCC3;" width="36.6" height="0.9"/>
	<rect x="67.2" y="104" style="fill:#ABBCC3;" width="17.8" height="0.9"/>
	<linearGradient id="SVGID_1_" gradientUnits="userSpaceOnUse" x1="22.3556" y1="109.2808" x2="22.3556" y2="103.7467">
		<stop  offset="0" style="stop-color:#535B5B"/>
		<stop  offset="0.2551" style="stop-color:#474E4F"/>
		<stop  offset="0.6155" style="stop-color:#3D4344"/>
		<stop  offset="1" style="stop-color:#3A3F40"/>
	</linearGradient>
	<path style="fill:url(#SVGID_1_);" d="M21.4,109.5c2.1-5.8,1.8-4.6,1.8-6C21.1,109.4,21.4,108.3,21.4,109.5z"/>
	<path style="fill:#222A27;" d="M17.8,104c0.1,4.6,0.2,3.8-0.2,4.5C17.4,103.6,17.3,104.3,17.8,104z"/>
	<path style="fill:#222A27;" d="M17.6,102.1c0.1,1.1,0.1,0.8-0.2,1.3C17.3,101.8,17.2,102.1,17.6,102.1z"/>
	<path style="fill:#5E696E;" d="M13.1,100.4c0,1.2,0.1,0.9-0.4,0.9c0,1.8-0.1,1.5,0.4,1.5l0.6,2.9h2.6c0.4,3.7,0.4,3.1,0.4,3.6h4.7
		v-0.9l-3.9,0l-0.1-4.3H21v-0.9h-3.6l-0.1-1.3h75.5v1.2l-3.3,0l0,1h3.3v4.6h-3.4l0,0.6h4.7v-3.4h2.6v-5.6H13.1z"/>
	<path style="fill:#3A3F40;" d="M23.3,103.5H25v1h-1.7C23.3,104.5,23.3,103.5,23.3,103.5z"/>
	<path style="fill:#030301;" d="M97.3,109.2c22.1,0,19.9-0.2,19.9,0.5C95.1,109.7,97.3,109.9,97.3,109.2z"/>
	<path style="fill:#B9BDB8;" d="M97.3,108.7c22.1,0,19.9-0.3,19.9,0.7C95.1,109.4,97.3,109.7,97.3,108.7z"/>
	<rect x="105.9" y="107.2" style="fill:#142C1B;" width="11.2" height="1.5"/>
</g>
<g id="Case">
	<linearGradient id="SVGID_2_" gradientUnits="userSpaceOnUse" x1="1.5321" y1="101.9745" x2="124.3117" y2="101.9745">
		<stop  offset="0" style="stop-color:#050508"/>
		<stop  offset="1.903045e-02" style="stop-color:#0D1613"/>
		<stop  offset="4.146634e-02" style="stop-color:#212928"/>
		<stop  offset="0.5111" style="stop-color:#212928"/>
		<stop  offset="0.9758" style="stop-color:#212928"/>
		<stop  offset="0.9861" style="stop-color:#101617"/>
		<stop  offset="1" style="stop-color:#020402"/>
	</linearGradient>
	<path style="fill:url(#SVGID_2_);" d="M12.6,110.2c-0.3-3.2-0.5-7.7-0.5-8.3c0-0.6-0.5-1.1,0.5-1.1c114.6,0,105.3-0.7,105.3,1.3
		c0,1.3,0,8.7,0,8.7s3.9,0,5,0s2.5-0.8,2.7-2.6c0.3-1.9,0.5-14.2,0.5-14.6c0-0.4-0.9-0.5-1.2-0.5c-0.9,0.1-124-0.1-124-0.1
		c-0.2-0.2,0.6,13.3,0.8,15c0.1,0.8,1.5,1.6,2.6,1.9S12.6,110.2,12.6,110.2z"/>
	<linearGradient id="SVGID_3_" gradientUnits="userSpaceOnUse" x1="63.5782" y1="92.6836" x2="63.5782" y2="36.6081">
		<stop  offset="0" style="stop-color:#535B5B"/>
		<stop  offset="0.2551" style="stop-color:#474E4F"/>
		<stop  offset="0.6155" style="stop-color:#3D4344"/>
		<stop  offset="1" style="stop-color:#3A3F40"/>
	</linearGradient>
	<path style="fill:url(#SVGID_3_);" d="M24.5,36.4C24,37.6,2.3,89.7,1.4,91.6S0.8,95,4.9,95s116.7,0,118.6,0c1.9,0,3.2,0.4,2.5-2.6
		c-0.7-3-17.3-54-18-55.9c-0.7-1.9-1.6-1.9-3.7-1.9s-74.5,0-76.1,0S25.2,34.7,24.5,36.4z"/>
</g>
<g id="vol_x5F_internal">
	<g id="OCZ_x5F_Branding">
		<g>
			<linearGradient id="SVGID_4_" gradientUnits="userSpaceOnUse" x1="51.5959" y1="64.8557" x2="104.8952" y2="60.1926">
				<stop  offset="0" style="stop-color:#3C464D"/>
				<stop  offset="0.4257" style="stop-color:#3C464D"/>
				<stop  offset="0.7156" style="stop-color:#262C2F"/>
				<stop  offset="1" style="stop-color:#1E2423"/>
			</linearGradient>
			<path style="fill:url(#SVGID_4_);" d="M59.3,82.8c20.9,0,43.6,0,45.1,0c2,0,2.6-0.8,2.2-2.2s-8.1-36.6-8.5-38s-0.9-1.8-2.6-1.8
				c-28.2,0-26.1,0-26.3,0.1c0,0,2.9,4.2-1.6,9s-17,12.7-15.4,20.9C52.1,70.7,53.1,78.5,59.3,82.8"/>
			<linearGradient id="SVGID_5_" gradientUnits="userSpaceOnUse" x1="26.9205" y1="57.9472" x2="66.5091" y2="65.6425">
				<stop  offset="0" style="stop-color:#346A24"/>
				<stop  offset="0.3447" style="stop-color:#70A028"/>
				<stop  offset="0.4917" style="stop-color:#70A028"/>
				<stop  offset="0.7033" style="stop-color:#70A028"/>
				<stop  offset="1" style="stop-color:#346A24"/>
			</linearGradient>
			<path style="fill:url(#SVGID_5_);" d="M59.3,82.8c-18,0-34.6,0-35.3,0c-1.4,0-1.9-0.6-1.5-2s11.9-38.4,12-38.9
				c0.4-1.6,0.9-1.1,34.8-1.1c7,9.6-17.2,15.5-17.2,28.9C52.1,76.9,59.3,82.8,59.3,82.8z"/>
			<path style="fill:#99A5B0;" d="M60.1,57.4C70.6,48.7,73.2,47,70.2,40.8c-0.6,0-1.2,0-1.8,0c2.2,4.1,2.1,6.5-6.7,13.5
				c-9.9,7.8-16,17.4-3.6,28.5c0.8,0,1.6,0,2.4,0C51.7,75.2,49.8,65.9,60.1,57.4z"/>
			<linearGradient id="SVGID_6_" gradientUnits="userSpaceOnUse" x1="80.129" y1="81" x2="80.129" y2="44.693">
				<stop  offset="0" style="stop-color:#90ABA7"/>
				<stop  offset="1" style="stop-color:#787878"/>
			</linearGradient>
			<path style="fill:url(#SVGID_6_);" d="M76.6,80.9c-1.8,0-3.1-1-3.1-2.1c0-1.1-0.4-31.8-0.4-32.6c0-2,3-1.5,9.2-1.5
				c0.9,0,1.8,0.3,2,1.7c0.2,1.3,2.8,31.1,3,32.1c0.3,1.8-1.8,2.5-2.4,2.5C84.2,81,76.6,80.9,76.6,80.9z"/>
			<linearGradient id="SVGID_7_" gradientUnits="userSpaceOnUse" x1="73.5414" y1="63.2331" x2="85.3511" y2="62.5107">
				<stop  offset="0" style="stop-color:#346A24"/>
				<stop  offset="0.3447" style="stop-color:#70A028"/>
				<stop  offset="0.4917" style="stop-color:#70A028"/>
				<stop  offset="0.7033" style="stop-color:#70A028"/>
				<stop  offset="1" style="stop-color:#346A24"/>
			</linearGradient>
			<path style="fill:url(#SVGID_7_);" d="M74.5,78.7c0-1.2-0.4-31.6-0.4-32.2c0-1.4,1.6-1.1,7.3-1.1c1.1,0,1.6,0,1.7,0.9
				s3.2,31.9,3.2,32.4c0,0.7-0.4,1.8-2,1.8C78.3,80.3,74.5,80.9,74.5,78.7z"/>
		</g>
	</g>
</g>
<radialGradient id="SVGID_8_" cx="64.484" cy="72.9984" r="23.943" gradientTransform="matrix(1.1697 0 0 0.3602 -10.9451 39.7056)" gradientUnits="userSpaceOnUse">
	<stop  offset="0" style="stop-color:#000000"/>
	<stop  offset="1" style="stop-color:#000000;stop-opacity:0"/>
</radialGradient>
<ellipse style="fill:url(#SVGID_8_);" cx="64.5" cy="66" rx="28" ry="8.6"/>
<path id="icon_1_" style="fill:#FFFFFF;" d="M57.3,38.1c3,0,5.9,1.4,7.6,1.4c3.1,0,9.5-5,15.3,2.3c-8.3,7-2.9,15.1,1.1,16.3
	c-1.2,3.8-5,10.8-9.2,10.8c-2.2,0-4.5-1.6-7-1.6c-2.8,0-4.4,1.6-6.6,1.6c-5.8,0-10.8-12-10.8-18.5C47.7,42.3,52.4,38.1,57.3,38.1
	 M72.2,28.8c0.5,1.7-0.3,5.2-2.8,7.6c-1.7,1.7-2.8,2-5.1,2.1C64.3,33.2,67,30,72.2,28.8"/>
<linearGradient id="icon_3_" gradientUnits="userSpaceOnUse" x1="54.1318" y1="31.8626" x2="89.3238" y2="93.8675">
	<stop  offset="0.1431" style="stop-color:#FFFFFF"/>
	<stop  offset="1" style="stop-color:#000000;stop-opacity:0.4"/>
</linearGradient>
<path id="icon_2_" style="fill:url(#icon_3_);" d="M57.3,38.1c3,0,5.9,1.4,7.6,1.4c3.1,0,9.5-5,15.3,2.3c-8.3,7-2.9,15.1,1.1,16.3
	c-1.2,3.8-5,10.8-9.2,10.8c-2.2,0-4.5-1.6-7-1.6c-2.8,0-4.4,1.6-6.6,1.6c-5.8,0-10.8-12-10.8-18.5C47.7,42.3,52.4,38.1,57.3,38.1
	 M72.2,28.8c0.5,1.7-0.3,5.2-2.8,7.6c-1.7,1.7-2.8,2-5.1,2.1C64.3,33.2,67,30,72.2,28.8"/>
<rect x="40.9" y="85.2" style="fill:none;" width="46.2" height="15.8"/>
<text transform="matrix(1 0 0 1 55.7531 92.8078)" style="display:none;fill:#8C8C8C; font-family:'HelveticaNeue-CondensedBold'; font-size:10.7242px;">HFS</text>
<g id="HFS_Outlines">
	<path style="fill:#8C8C8C;" d="M57.8,85.1l-0.2,2.7h1.9l0.2-2.7h1.5l-0.3,7.7h-1.7l0.2-3.6h-1.9l-0.3,3.6h-1.7l0.9-7.7H57.8z"/>
	<path style="fill:#8C8C8C;" d="M66.5,85.1l0,1.2h-2.8l0,1.7h2.7l0,1.3h-2.7l0,3.5H62l0.2-7.7H66.5z"/>
	<path style="fill:#8C8C8C;" d="M68.8,90.5c0.1,0.8,0.4,1.3,1.2,1.3c1.1,0,1.2-1.3,0.5-1.8c-0.7-0.6-2-0.5-2.8-1.4
		c-1-0.9-1-3.5,1.7-3.5c1.7,0,2.5,0.8,2.6,1.9c0,0.3,0.3,0.2-1.5,0.2C70.4,86.3,70,86,69.5,86c-0.6,0-0.9,0.3-0.8,0.8
		c0.1,1.2,1.6,1,3,1.9c1.4,0.9,1.2,2.9,0.4,3.5c-1,0.8-3.4,0.8-4.2,0c-0.2-0.2-0.6-0.5-0.7-2.1C69,90.2,68.7,90.2,68.8,90.5z"/>
</g>
</svg>
