<?xml version="1.0" encoding="utf-8"?>
<!-- Generator: Adobe Illustrator 22.1.0, SVG Export Plug-In . SVG Version: 6.00 Build 0)  -->
<svg version="1.1" id="pointer" xmlns="http://www.w3.org/2000/svg" xmlns:xlink="http://www.w3.org/1999/xlink" x="0px" y="0px"
	 viewBox="0 0 22 22" style="enable-background:new 0 0 22 22;" xml:space="preserve">
<g>
	<rect id="BoundingRect_44_" style="fill:none;" width="22" height="22"/>
	
		<radialGradient id="Shadow_1_" cx="-945.719" cy="164.8536" r="0.7564" gradientTransform="matrix(13.0007 0 0 -13.6472 12298.5928 2261.2361)" gradientUnits="userSpaceOnUse">
		<stop  offset="0" style="stop-color:#020203;stop-opacity:0.3326"/>
		<stop  offset="1" style="stop-color:#020203;stop-opacity:5.000000e-02"/>
	</radialGradient>
	<path id="Shadow" style="fill:url(#Shadow_1_);" d="M8.8,12.5l1.9,4.2c0.3,0.7,0,1.4-0.7,1.7l-3,1.3c-0.7,0.3-1.4,0.2-1.7-0.5
		l-1.6-4.2c-1,0.8-1.7,1.4-2.1,1.8c-0.7,0.6-1.5,0-1.5-0.7C0,15.5,0,3,0,1.5S1-0.5,2.1,0.7S12,10,12.6,10.7s0.4,1.3-0.7,1.4
		C11.2,12.2,10.1,12.4,8.8,12.5z"/>
	<path id="Arrow" style="fill:#020203;stroke:#FFFFFF;" d="M11,10.9L1.5,2l0,13l2.9-2.5l2.4,5.6l2.8-1.2l-2.4-5.6L11,10.9z"/>
</g>
</svg>
