<?xml version="1.0" encoding="utf-8"?>
<!-- Generator: Adobe Illustrator 23.0.1, SVG Export Plug-In . SVG Version: 6.00 Build 0)  -->
<svg version="1.1" id="Background" xmlns="http://www.w3.org/2000/svg" xmlns:xlink="http://www.w3.org/1999/xlink" x="0px" y="0px"
	 viewBox="0 0 1366 768" style="enable-background:new 0 0 1366 768;" xml:space="preserve">
<g>
	<rect id="Flood_Fill_4_" x="0" y="0" style="fill:#010202;" width="1365.6" height="768"/>
	<linearGradient id="Flood_Fill_1_" gradientUnits="userSpaceOnUse" x1="345.9452" y1="-199.7778" x2="1019.9799" y2="967.6845">
		<stop  offset="0" style="stop-color:#003400"/>
		<stop  offset="0.25" style="stop-color:#001400;stop-opacity:0"/>
	</linearGradient>
	<rect id="Flood_Fill_2_" x="0" y="0" style="fill:url(#Flood_Fill_1_);" width="1365.9" height="768"/>
</g>
<g id="Layer_2">
	<path style="fill:#050F13;" d="M851.2,628.7c-17.1-0.7-77.6-8.9-84.6-28.9c-2.7-7.7,8.9-25.2,7.3-35.4c-1.5-10-7.4-12.4-14-18.9
		c-1.2-1.2,4.5-3.8,2.9-5.4c-2.9-2.9-17.2-4.2-18.2-6.9c-1.9-5.3,3.9-7,4.6-16.6c0.3-4.9-8.5-19.9-7.2-23.8
		c2.6-7.5,0.7-2.3,10.4-5.4c5.7-1.8,11.9-0.2,16.9-4.3c3.2-2.6,3.6-11.6,6.2-12.4c3.9-1.2,11.1,16.8,16.1,19.9
		c0.3,0.2,2.6-7,5.8-5.7c5.5,2.2,9.6,9.7,13.3,14.3c7.5,9.1,4.5,9.6,13.1,8.9c3.5-0.3,17.8-11.5,20.3-14.4
		c9.8-11.5,4.5-17.4,19.8-0.7C900.7,533.1,938.7,629.6,851.2,628.7z"/>
	<path style="fill:#003400;" d="M714.2,467.1c0.4,2.6-0.4,4.9-2.6,6.8c-2.7,0.4-5.9-16.1-0.5-15.8
		C713.9,460.3,714.9,463.3,714.2,467.1z"/>
	<path style="fill:#003400;" d="M496.5,304.8c-2.7,12.6-6.4-6.4-2.6-6.1C496.3,300,497.2,302.1,496.5,304.8z"/>
	<path style="fill:#021817;" d="M981,88.7c-11.2-0.9-115.9-4.2-116.4-13c-0.2-3.4,196.2,8.7,195.9,16.8
		C1060.2,97.4,982.4,88.8,981,88.7z"/>
	<path style="fill:#021817;" d="M307.7,181.8c-0.7-2.5-3-24.3-3-27.5c-0.4-8.7,5.3-10.2,9.1-7c4.7,4,8.7,9.3,14.2,12
		c1.8,0.9,2.3,3.4,2.2,5.3c-0.3,8.8-0.1,17.9-5.4,25.5c-1.8,2.6-3,3.8-5.7,0.8c-2.5-2.7-5.7-4.4-8.8-6.3
		C309,184,307.8,183.6,307.7,181.8z"/>
	<path style="fill:#003400;" d="M307.7,181.8c-1-0.6-1.4-1.5-1.6-2.8c-0.7-8.3-2.3-16.1-1.6-24.4c0.3-0.7,1.1-0.5,1.2-1.1
		c0.7-2,0.5-5,2.9-5.2c4.7-0.1,5.4,6.8,7.4,7.6c7.7,2.7,9.7,9.2,9.4,17.4c-0.2,5.6-7,11.3-11.3,8.8
		C311.9,180.8,309.9,181.1,307.7,181.8z"/>
	<path style="fill:#042F26;" d="M597.6,54.7c4.1-2.9,7.7-4.9,12.1-2.7c0.9,0.5,2.2,0.8,2.1,2.3c-0.1,1.5-1.1,2.3-2.2,2.8
		C605.5,59.3,601.8,57.5,597.6,54.7z"/>
	<path style="fill:#021817;" d="M803.2,561.2c-15.3,0.9-35.3-4-7.7-9.3c8.9-1.7,15.4-1.1,20.2-9.9c2.3-4.2-1-25,3.5-26.5
		C821.7,514.7,839.2,564,803.2,561.2z"/>
	<path style="fill:#003400;" d="M810.2,539.3c-0.1,0.8,0.1,1.9-0.9,2.1c-1.3,0.2-1.3-1-1.3-2c0-0.9,0.1-1.9,1.1-1.9
		C810,537.4,810.2,538.4,810.2,539.3z"/>
</g>
<g>
	<path style="fill:#003400;" d="M363.2,26.5c-18.8-2.3-16.1-1.4-23.5-2.9c-0.6,0-1.2,0.1-1.8,0c-10.2-1.9-20.4-0.8-30.7-2.4
		c-6.5-1-13.1-2.3-19.6-2.8c-5.9-0.4-11.7-1.5-17.6-2c-5.8-0.5-11.6-0.7-17.3-1.7c-12-2.1-24.1-2.7-36-4.6
		c-7.6-1.2-15.2-2.7-22.8-3.7c-3.8-0.5-7.4-1.9-11.2-2.6l-7.9-3.3C173.1-0.3,178.9,0,0,0v38.6c0.8-1.8,1.3-4.9,4.1-2.8
		c2.7,1.9,4.4,5,6,8c1.3,2.5-1.1,5.1-1.7,8.7c-0.4,2.2-2.6,5-1.1,6.5c2.6,2.4,8-4.5,11-1.3c1.7,1.7,1,3.9,0.6,6
		c-0.3,1.7-1.8,3.5-0.1,5c3.5,3,7.4-6.8,9.5,0.4c1.7,5.9-2.2,13.1-0.3,14.4c1.1,0.8,1.6-0.9,2.3-1.5c1-0.9,1.7-2.2,2.2-3.6
		c0.8-2.3,2.5-3.7,4-5.3c1.6-1.7,2.9-1.1,3.4,1.2c0.6,2.3,1,4.6,0.8,7c-0.1,1.8,0.4,3.3,2.4,2c3.1-1.9,3.2,1.7,4.9,5.3
		c3.9,8.7,4.5-6.5,8.6-16.8c2.1-5.4,3.2,2.9,6.5-2.8c0.7-1.3,1.2-3.9,2.5-3.4c2.3,0.8,5-0.3,7,1.2c5.5,4,5.4,9.7,9.1,8.2
		c2-0.8,3.2-2.8,3-5.6c-0.7-7.1,2.6-8.8,2.8-11.7c0.3-2.6,1.5-2.8,3.2-2.7c1.7,0.1,3,1.1,4.3,2.1c3.9,3.2,8.3,5.7,12,9.3
		c0.6,0.6,1.4,1.3,2.2,0.6c0.8-0.8,0.1-1.7-0.2-2.4c-5.1-11.6-6.2-13.1-4.5-15.3c1.1-1.5,2.6-1.1,3.9-0.8c3,0.8,6.2,1,9.2,2.3
		c4.3,1.8,1.6-3.7,3.7-4.2c8-2,1.5-1.8,19.2-1c4.7,0.4,1.5-6.8,6.5-7.6c2.2-0.3,3.4-3.1,5.8-3.2c7.8-0.4,15.5-1.6,23.1-3.4
		c5.5-1.3,11.3-1.4,16.2-4.6c3.1-2,6.7-2.5,9.6-2.3c5.8,0.2,11.6-1.3,17.4-0.6c0.4,0.1,0.7,0.1,1.1,0c3.3,0.6,3.3,0,3.9,0
		c6.5-0.4,12.8,0.9,19.2,0.7c1.8,0.3,3.7-0.6,5.3,0.7c0.4,0,0.8,0,1.2,0c1.2-1,2.3-1,3.6,0c8.5,0,8.5-0.2,9.5,0.7c2,0.1,4-0.7,6,0
		c1.6,0.3,3.3-0.6,4.8,0.7c1.2,0,2.3,0,3.6,0c0.7-1,1.7-0.8,2.5-0.6c9.1,2.2,18.3,0.4,27.4,2c4.9,0.9,9.9-0.3,14.7,1.4
		c2.9,1,5.9-0.2,8.7,1.5c5.7,3.2,18.9,2.3,24.7,2.9c5.9,0.6,6.6,2.7,13.9-3.2C367.5,28.3,365.6,26.8,363.2,26.5z"/>
	<path style="fill:#004800;" d="M199,10.2c-6.6-1.6-13.3-2.4-19.7-4.6c-0.7-0.3-1.7-0.3-1.6-1.5c0.1-0.8,0.9-0.6,1.5-0.6
		c0.3-3.6,3.9-0.6,4.2-3.4H0l0,25.8c0.7-0.5,0.8-1.3,0.8-2.1c-0.2-2.9,1.2-3.3,2.9-1.9c4.5,3.9,18.7,11.5,14.7,19
		c-1.1,2.2-2.3,5.8-1.3,6.9c2.6,3.1,8.4-6.2,9.3,0.7c0.2,2-0.3,3.7-0.6,5.7c-0.2,0.9-1.1,2,0,2.7c2.4,1.6,5.2-3.7,6.9-2.8
		c1.1,0.6,1.5,2,1.5,3.4c0,8.8-0.2,8.3,0.4,8.6c1.8,1.1,4.2-7.6,8-6.2c1.9,0.7,0.7,3.5,1.1,5.8c0.3,1.7,0.6,3.6,2.8,1.9
		c2.4-1.9,2.2,1.7,3.3,3.9c0.4,0.8,1,1.7,1.8,1.5c1.1-0.1,1.2-1.3,1.5-2.2c3-11.2,2.9-15,6.6-13.3c0.3,0.1,1-0.1,1.1-0.3
		c1.5-3.1,3.1-5.3,6.3-2.5c2.8-2.8,3.9,0.9,7.8,5.7c0.6,0.7,1.4,1.8,2.2,0.5c1-1.6,2.5-2.9,2.2-5.3c-0.4-4.3,2.6-6.4,4.4-9.3
		c0.6-0.9,1.7-1.1,2.9-0.4c3.3,1.8,6.5,3.7,9.3,6.5c0.5,0.5,1,1.3,1.8,0.8c0.9-0.6,0.4-1.5,0.3-2.4C97,45.6,91.2,40,98.6,40
		c1.4,0,2.9-0.1,4.1,0.3c5.2,2,4.1-5.4,11-4.1c3,0.6,6,0.2,8.9,0.4c1.2,0.1,2.3-0.3,2.3-1.9c0.3-5.3,3.6-7.6,7.5-8.6
		c8.4-2.3,16.8-4,25.4-5c1.1-0.1,2.2-1.3,3.4-0.3c2,1.7,2.5-0.1,3-1.8c-4.4-14.2-4.1-12.3-3.2-12.2c2.2,0.3,4.6,0.6,6.2,2.7
		c0.8,0,1.6,0,2.3,0c1.2-1.2,2.2-0.8,3,0.6c0.4,0,0.8,0,1.2,0c0.6-0.8,1.5-1.6,2.3-1.2c3,1.5,6.3,1,9.3,1.6c3.4,0.8,6.9,1.1,10.3,2
		c5.2,1.2,10.5,1,15.7,1c0.3,0.1,0.7-0.4,1-0.6C208.2,11.1,203.5,11.3,199,10.2z"/>
	<path style="fill:#006E00;" d="M227.1,17.2c-1.5-1.7-3.6-2-5.3-2.7c-0.8-0.3-1.5-0.2-1.7-1.4c-2.6,0-5.1,0-7.7,0
		c-0.3,0.2-0.7,0.6-1,0.6c-10.3-0.1-9,0.5-26-3c-3-0.6-6.3-0.1-9.3-1.6c-0.6-0.3-5.6-0.1-8.9,0.4c-3-3.5-5.5-1.2-18.4-5.5
		c-1.5-0.4-3.6-1.1-2.3-4L0,0v15.6c0.7-0.7,1.5-1.6,2.7-1c7.5,3.9,15.5,6.5,20.6,15c1.4,2.2,2.2,3.4,0.6,5.7c-1,1.5-1.1,3.6-0.3,5.1
		c1,1.7,2.4-0.1,3.7-0.3c1.2-0.2,3.7-1.7,3.7,2.2c0,5.4-0.2,6.9,2.9,4.8c1-0.6,1.8-2,3.1-1.1c1.4,1,1.3,3,0.8,6.7
		c-0.1,1-0.8,2.1,0.3,2.7c1.1,0.6,1.4-0.9,2-1.5c1.4-1.3,2-4.4,4.3-3.5c1.9,0.8,1.4,3.5,1.9,5.3c0.3,0.9,0.2,2.2,1.3,1.7
		c4.1-1.8,2.8,4.4,5,3.9c1.4-0.3,1.2-5.4,3-9.2c0.6-1.3-0.1-4.6,3.2-3.2c1.9,0.9,2-3.7,4.4-2.9c2.1,0.9,2.2,1.5,2.7,1
		c3.7-3.4,4.5,4.6,7.4,3.3c3.3-1.4,1.6-4.7,3.2-7c6.8-9.7,12.5,2.3,14.2,1c2.2-1.7-5.9-12.6,0.6-10c0.7,0.3,1.4-0.1,2-0.1
		c3,0.3,5.2-2.4,7.9-3c3.2-0.8,6.3-1.1,9.6-0.1c6.3,1.9-0.2-8.6,9.8-8.7l31.2-3.2c0.8,1.1,2,0.5,2.9,0.1c3.1-1.5,6.1-1.2,9.1-0.3
		c1.7,0.1,3.2-0.1,4.8-0.7c3.9-4.9,10.6-2.2,34.5-1.9c1.8,0,4-0.2,5.4,1.9c3.6,0.1,7,1.8,10.8,0.8c1.4-0.4,1,1.5,1.1,2.5
		c0.8,0,1.6,0,2.3,0c0-0.7,0.1-1.3,0-2C223.2,16.8,225.7,18.4,227.1,17.2z"/>
	<path style="fill:#007800;" d="M173.7,10.2c-0.4,0-0.8,0-1.2,0c-1.3,1.5-2.1,0.1-3-0.6c-0.8,0-1.6,0-2.3,0c-4,0.5-7.9-0.8-11.8-1
		c-6.6-0.4-12.9-2.7-19.5-3c-2.9-0.1-3.8-1.9-3.1-5.5L0,0l0,10.3c3.7,0.3,7,2.6,10.3,4.3c5.9,3.1,12.2,5.5,16.2,11.9
		c0.1,0.3,0.4,0.5,0.7,0.6c2.3,0.6,1.9,2.4,0.9,3.7c-1.2,1.6-0.9,2.9-0.2,4.3c0.8,1.5,2.1,1,3.2,0.6c3-1,4,0,3.5,3.6
		c-0.1,0.9-1,2,0.3,2.6c2.9,1.4,2.9-3.5,5.1-2.1c1.5,1,1.4,3.8,1,5.6c-0.1,0.7-0.5,1.4,0.1,1.8c0.8,0.5,1.3-0.1,1.8-0.6
		c1.7-2.2,1.6-2.8,3.5-2.3c1.9,0.4,1.2,2.5,1.3,4.7c0.1,1.5,0.4,2.7,1.8,1.1c2.7-3,0.9,2.6,3.6,2.6c1.2,0,1-1.4,1.3-2.3l1.9-6.4
		c1.7-1.1,3.9-1.3,4.9-3.6c1.5-1.5,3.1,1.4,4.4,0.5c3.2-2.3,3.1,4.1,5.2,2.8c1.1-0.6,2.7-1.1,2.6-2.9c-0.1-2.9,2.1-4.1,3.2-6
		c0.4-0.7,1.3-1.2,1.8-0.6c1.8,2.2,5,1.5,6.5,4.3c0.4,0.8,1.5,1.7,2.2,1.2c1.3-0.8-0.1-2-0.1-3c0-1.6-2.8-3.2-1.2-5.8
		c1-1.7,2.2-0.3,3.2-0.1c1.8,0.3,3.9,0.4,5.1-0.7c4-3.4,8.3-2.3,12.5-1.8c2.1,0.2,2.5-0.1,2-2.3c-0.3-1.5-0.2-3,1.2-3.8
		c1.3-0.6,2.6-0.9,3.7,0.7c1,1.3,1.7,0.7,2-0.7c0.3-1,0-1.9,1.1-2.5c2.8-1.7,3.1-1.5,4.4,2.8c0.8,0,1.2-0.4,1.2-1.3
		c-0.6-3,0-4,4-4.6c5.5-0.9,10.9-2,16.4-1.5c2.5,0.2,4.8,0.9,6.3,3.4c1,0,2,0,3,0c3.1,0.1,6-2,9.1-1.5c1.5,0.3,3,0.8,4.6,0.3
		c1.3-0.4,2.6-0.7,3.4-2.2c0.9-1.5,2.3-1.3,3.7-1.5c3.4-0.5,6.8,1.3,10.5-0.5C180.1,11.1,176.4,12.7,173.7,10.2z"/>
	<path style="fill:#008C00;" d="M73.9,27.9c-1.3,2.5-3.6,4.1-4.6,6.9c-0.3,0.6-1.3,1.6-1.6,1c-1.7-3.2-4.4-0.8-6.6-1.8
		c-0.6-0.3-1.3-0.1-2.1,0.3c-4.4,8-3.9,6.6-4.1,11.2c-0.2,0.3-0.4,0.5-0.6,0.7c-2,0-2.2-6.1-3.8-1.7c-0.1,0.3-0.6,0.6-0.9,0.6
		c-0.8,0-0.5-1.3-0.6-2c-0.3-1.5,0.8-3.4-0.9-4.3c-1.5-0.8-2.6,0.5-3.4,1.9c-0.6,0.9-1.8,0.6-1.6-1c0.2-1.9,1.3-2.3-0.7-4.5
		c-0.9-1-1.4-0.1-2,0.5c-0.9,1-1.9,1.3-2.8,0.7c-1-0.6-0.1-1.7,0-2.4c0.4-4.1-2.7-2.8-6.6-1.7c-0.6-1.2,0.3-2.2,0.1-3.3
		c-0.3-1.8,3.4-3.4,0.3-5.6c-1.6-1.1-1.5-4.3-4-4.6c-0.3-0.1-0.6-0.3-0.7-0.6c-0.9-4.2-4.2-4.1-6.8-4.8C14,11.6,10.6,6.5,0,4.8V0
		l134.2,0c-6.9,0.2-10.8,2.9,0.1,7.4c1.9,0.8-7.8,6.3-10.5,4.8c-2.7-1.5-3.6-1.9-7.1-0.1c-1,2.3-3.1,1.7-4.6,1.9
		c-4.5,0.5-8.6,2.3-12.4,4.8c-0.5,0.3-1.2,0.7-1.2,1.3c0.1,3.5-2,2.9-3.9,2.7c-6-0.6-9.3,3.4-12.6,2.5c-1.4-0.4-2.5,0.8-1.5,2.7
		c0.7,1.3,0.6,2.7,1.3,4.7c-1.9-1.3-3.2-2-3.7-3.7C76.9,28.3,74.2,27.4,73.9,27.9"/>
	<path style="fill:#009600;" d="M0,0c0,0,111.3,0,115,0c0.4,2.5,2.5,2.8,4,3.3c13.7,4.5,30.9,5,36.4,7.3c-8.9,0.2-17.8,0.3-26.7,1
		c-1.7-0.4-3.2-0.3-4.8,0.7c-6.8,0-18.7,0.1-25,2.5c-2.7,1-4.3,1.8-4.1,5.2c0,0.8-0.1,1.9-1,1.6c-3.6-1.2-6.9,0.3-10,1.7
		c-2.2,1-4.3-1.4-6.2,0.6c-0.6,0.4-1.2,1.4,0,2c3.7,1.7-0.9,6.7-3.7,2c-1.1-2.2-3.5-1.9-4.6,0.9c-1,2.5-1.9,4.4-4.4,2
		c-0.8-0.8-2.4,1.7-2.9-0.8c-0.6-1.9-2.7-2.3-2.4,0c0.3,2.4-2.9,0.8-2.9,0.8c-0.8-0.6-1.5,1-1.6,2.6s1.2,3.9,0.3,4
		c-5.7,0.8-4.7-3.5-4.8-4c0-0.5,0.8-2.2-0.7-3.2c-1.5-1-2.9,1.3-3,2.5c-0.1,1.2-0.4,2.6-1.3,2.2c-0.9-0.5,0-1.8,0.4-2.3
		c0.4-0.4-0.1-2-0.1-2c-0.7-0.4-1.5-1-2.2-0.6c-1.8,0.8-3.6,2-3-2c0.1-1-1.1-1.7-2.3-1.2c-1.1,0.4-2.3,1-3.2-0.5
		C34,24.3,38,21.8,35.3,21c-0.9-0.3-1.1-1.1-1.2-2.1c-0.1-0.5-0.4-1.5-0.6-1.5c-3.3-0.3-4.2-4.7-7.4-5.3c-2.6-0.5-4.8-2.3-7.2-3.7
		c-5.3-3-11.3-3.9-16.8-6.2C-0.4,1.1,0,1.9,0,0z"/>
	<path style="fill:#00A000;" d="M102.1,11.1c-2.5,2.8-7.5,0.9-11.8,4c-0.6,0.4-1.1,1-0.7,1.9c1.5,3.2-0.2,2.9-2,2.1
		c-1.7-0.8-3,0.6-4.4,1c-2,0.6-3.7,2.3-6,1.8c-0.5-0.1-1,0.3-0.9,1c0.1,0.7,0.6,0.8,1.1,1c0,0.7,0,1.3,0.1,2c-1.8,2-3-0.6-4.4-1.1
		c-4.4-1.4-4.4,5.3-7.9,4.1c-1.5-0.5-2.2,0.4-3.2,1c-0.2-0.3-0.4-0.4-0.6-0.7c-0.4-0.7-0.6-1.6-1.5-1.5c-0.1,0-0.2,1-0.3,1.5l0,0
		c-1,0.3-2.6-0.8-3,1.4c-0.9,1.1-0.8,2.7-1.2,4.1c-2.2,2.2-1.3-2.2-2.7-1.4c-0.6,0.9-0.8,1.1-2,1.5c-0.1-0.3-0.1-0.2-0.2-0.5
		c0.6-0.3,0.7-0.5,0.2-0.8l0,0c-0.3-1.1,0.7-2.8-1-3.3c-1.3-0.3-1.5,1-2,1.9c-0.3,0.3-0.5,0.6-0.8,1c-0.5-0.1-0.5-0.1-1-0.3v-2
		c0.7-1,1.3-2.4,0.4-3.3c-1.5-1.5-2.5,1.8-4.1,1c0.1-3.9,0.1-3.9-3.3-3.6c-2.2,0.2-2.1-1.3-1.7-2.9c0.3-0.8,1.3-1.8,0.4-2.3
		c-2.9-1.8-4.4-5.4-7.5-6.6c-5.5-2.2-10.4-6-16-8.1C-0.6-1.1,0,2.2,0,0l103.6,0c0,0-0.2,1.1,0.8,1.8c0.7,0.5,2.3,0.1,3.3,1
		c0.9,0.7,2.8,8.5,4.3,6c0.9-1.4,4.9-1.6,5.8-1.3c1.3,0.4,1.6-0.3,1.9-1.2c4.9,1.7,7.6,0.8,11.2,2.5c1.7,0.8-11.4,0.1-12.7,0.2
		c-2.5,0.3-3.6,3.6-6.2,1.1c0,0-1.1-0.3-1.3-0.1C109.1,12.5,103,11.5,102.1,11.1z"/>
	<path style="fill:#00AA00;" d="M94.2,10.2c-0.6,3-3,2-4.6,2.6c-1.4,0.4-2.7,1-2.4,2.7c0.3,1.9-0.3,2.2-1.6,2.1
		c-1.1-0.1-1.8,0.7-2.8,1c-1.9,0.6-3.8,2.1-5.8,1.6c-1.7-0.4-1.9,0.1-1.8,1.7c0.1,1.9-0.8,2-2.1,1.3c-1.7-0.8-3.1-1-4.5,0.8
		c-5.1,6.2-10.7-2.8-12.9,5.8c-0.1,0.6-0.5,1.2-0.9,0.5c-1.1-2.2-1.7,0.4-2.4,0.3c-0.8-1.3,0.5-3.2-1-4c-1.7-0.8-1.8,1.9-3,2
		c-1-0.9,1-6.9-2.8-3.5c-0.4,0.4-1.7,1-1.5-0.3c0.6-3.5-1.5-2.2-2.8-2.4c-4.7-0.8,1.1-3.6-1.5-6.2c-2-2.1-3.9-4.8-6.3-5.9
		C26.2,7,19.3,3.4,11.8,1.8c-1-0.2-2.2-0.3-2.7-1.8c0.9,0,81.9,0,85.6,0C94.8,0,94.1,10.1,94.2,10.2z"/>
	<path style="fill:#00C200;" d="M92.8,0c1.1,1.3,2.7,1.1,4,1.8c5.7,3.2,11.7,2.9,12.7,3c0.3,0.6,0.7,0.7,1.2,0.6
		c0.8,0,1.2,0,3.6,0.7c1.7,0.1,3.5,0.1,5.2,0.3c-0.3,1.9-1.6,1.1-2.5,1.3c-1.8,0.2-3.7-0.4-5.2,1.3c-0.4,0.2-0.8,0.4-1.1,0.6
		c-0.2,0-0.4,0-0.5,0.1c-0.7-0.6-1.5-1.2-2.4-0.6c-3.6,0-6.5-0.1-11.3,1.4c-5.4,0-5.1-0.7-12.2,1.8c-1.8,0.6-2.5,1.5-1.2,3.6
		c-4-1-8.6,1-11.2,4.3c-0.2,0.3-0.8,0.5-1,0.4c-2.3-1.3-3.9,0.5-5.7,1.5c-4.5,2.3-7.3-1.8-9.1,2.7c-0.6,1.7-2.9,1.6-3.7,0
		c-0.2-0.4-0.6-1-0.8-0.9c-2.5,0.9-2.3-3.7-4.8-2.9C46.5,17.6,44,20,43,19c-1.4-1.1,0.3-3.2-1.2-5C37.6,8.8,32,7.3,26.6,5.1
		C22.1,3.1,17.3,2,12.7,0C15.1,0,92.8,0,92.8,0z"/>
	<path style="fill:#00EC00;" d="M83.4,0c6.2,2.7,12.6,4.5,19.2,5.7C97,6.2,92,9.3,86.4,9c-2.3-0.1-5.1,0.4-6.7,2
		c-2.5,2.5-5.5,2.4-8.1,3.9c-0.6,0.4-1.8,0-1.6,1.3c0.2,1.6-0.4,1.5-1.3,1.1c-3-1.4-5,2.8-8.4,2.2c-1.6-0.3-2.5,0-3.7,1.1
		c-0.7,0.6-2.1,1.3-2.7,0.9c-2.9-1.7-5.1-4.8-8.7-4.6c-2.1,0.2,2-4.6-6.1-8.5C24.5,1.2,22.7,3.9,19.7,0C19.7,0,81,0,83.4,0z"/>
	<path style="fill:#60FE00;" d="M76.3,0c0.1,1.7,1.4,1.4,2.2,1.7c2.5,0.8,5,1.5,7.7,2.2C80.1,7.7,73.8,7.5,66,11.4
		c-2,1-4.6-0.1-6.7,1.4c-3.5,2.5-6.4-0.3-9.5-1.3c-0.2-0.1-0.4-0.1-0.5-0.3C46.2,2.9,35.2,7.1,31.6,0C31.6,0,72,0,76.3,0z"/>
	<path style="fill:#B2F978;" d="M68.1,0c0.1,0.9-0.1,0.6,5.8,2.3C70.3,4.5,66.6,4.4,62,6.7c-1.2,0.6-2.7,0-3.9,0.8
		c-2,1.5-3.8-0.2-5.6-0.8c-0.1,0-0.3-0.1-0.3-0.1C50.4,1.7,43.9,4.2,41.9,0C41.9,0,65.5,0,68.1,0z"/>
	<path style="fill:#B2F978;" d="M68.1,0c0.1,0.9-0.1,0.6,5.8,2.3C70.3,4.5,66.6,4.4,62,6.7c-1.2,0.6-2.7,0-3.9,0.8
		c-2,1.5-3.8-0.2-5.6-0.8c-0.1,0-0.3-0.1-0.3-0.1C50.4,1.7,43.9,4.2,41.9,0C41.9,0,65.5,0,68.1,0z"/>
	<path style="fill:#DBF9BD;" d="M62,0c0,0.4,0,0.3,2.9,1.1c-1.8,1.1-3.6,1.1-5.9,2.2c-0.6,0.3-1.3,0-2,0.4c-1,0.7-1.9-0.1-2.8-0.4
		c-0.1,0-0.1,0-0.1-0.1c-0.9-2.5-4.1-1.2-5.2-3.3C48.9,0,60.7,0,62,0z"/>
</g>
</svg>
