<?xml version="1.0" encoding="utf-8"?>
<!-- Generator: Adobe Illustrator 22.0.0, SVG Export Plug-In . SVG Version: 6.00 Build 0)  -->
<svg version="1.1" id="selection_x5F_big" xmlns="http://www.w3.org/2000/svg" xmlns:xlink="http://www.w3.org/1999/xlink" x="0px"
	 y="0px" viewBox="0 0 144 144" style="enable-background:new 0 0 144 144;" xml:space="preserve">
<g>
	
		<radialGradient id="Outer_Glow_1_" cx="-197.0999" cy="665.2673" r="130.8797" gradientTransform="matrix(0.5463 0 0 -0.5463 179.6757 435.4355)" gradientUnits="userSpaceOnUse">
		<stop  offset="0.8355" style="stop-color:#00FC32;stop-opacity:0"/>
		<stop  offset="0.9042" style="stop-color:#00FC32;stop-opacity:0.8"/>
		<stop  offset="0.9951" style="stop-color:#00FC32;stop-opacity:0"/>
	</radialGradient>
	<path id="Outer_Glow" style="fill:url(#Outer_Glow_1_);" d="M72,130.5c-32.4,0-58.5-26.3-58.5-58.5S39.7,13.5,72,13.5
		s58.5,26.3,58.5,58.5S104.4,130.5,72,130.5z M72,0.5C32.5,0.5,0.5,32.5,0.5,72s32,71.5,71.5,71.5s71.5-32,71.5-71.5
		S111.5,0.5,72,0.5z"/>
	
		<linearGradient id="Top_Ring_1_" gradientUnits="userSpaceOnUse" x1="-120.361" y1="452.2118" x2="-39.9697" y2="352.1996" gradientTransform="matrix(1 0 0 -1 152 474)">
		<stop  offset="0" style="stop-color:#B7FDE6"/>
		<stop  offset="0.3734" style="stop-color:#00F640"/>
		<stop  offset="1" style="stop-color:#00F631"/>
	</linearGradient>
	<path id="Top_Ring" style="fill:url(#Top_Ring_1_);" d="M72,6C35.6,6,6,35.6,6,72s29.5,66,66,66s66-29.5,66-66S108.4,6,72,6z
		 M72,135.4C37,135.4,8.6,107,8.6,72S37,8.6,72,8.6S135.4,37,135.4,72S107,135.4,72,135.4z"/>
</g>
</svg>
