<?xml version="1.0" encoding="utf-8"?>
<!-- Generator: Adobe Illustrator 22.0.0, SVG Export Plug-In . SVG Version: 6.00 Build 0)  -->
<svg version="1.1" id="selection_x5F_small" xmlns="http://www.w3.org/2000/svg" xmlns:xlink="http://www.w3.org/1999/xlink"
	 x="0px" y="0px" viewBox="0 0 64 64" style="enable-background:new 0 0 64 64;" xml:space="preserve">
<g>
	
		<radialGradient id="Outer_Glow_1_" cx="-270.3198" cy="738.4871" r="50.3386" gradientTransform="matrix(0.5463 0 0 -0.5463 179.6757 435.4355)" gradientUnits="userSpaceOnUse">
		<stop  offset="0.8355" style="stop-color:#00FC32;stop-opacity:0"/>
		<stop  offset="0.9042" style="stop-color:#00FC32;stop-opacity:0.8"/>
		<stop  offset="0.9951" style="stop-color:#00FC32;stop-opacity:0"/>
	</radialGradient>
	<path id="Outer_Glow" style="fill:url(#Outer_Glow_1_);" d="M32,54.5C19.6,54.5,9.5,44.4,9.5,32S19.6,9.5,32,9.5S54.5,19.6,54.5,32
		S44.4,54.5,32,54.5z M32,4.5C16.8,4.5,4.5,16.8,4.5,32S16.8,59.5,32,59.5S59.5,47.2,59.5,32S47.2,4.5,32,4.5z"/>
	
		<radialGradient id="Outer_Glow_night_1_" cx="-270.3198" cy="738.4871" r="50.3386" gradientTransform="matrix(0.5463 0 0 -0.5463 179.6757 435.4355)" gradientUnits="userSpaceOnUse">
		<stop  offset="0.8355" style="stop-color:#000DFC;stop-opacity:0"/>
		<stop  offset="0.9042" style="stop-color:#000DFC;stop-opacity:0.8"/>
		<stop  offset="0.9951" style="stop-color:#000DFC;stop-opacity:0"/>
	</radialGradient>
	<path id="Outer_Glow_night" style="opacity:0.5;fill:url(#Outer_Glow_night_1_);" d="M32,54.5C19.6,54.5,9.5,44.4,9.5,32
		S19.6,9.5,32,9.5S54.5,19.6,54.5,32S44.4,54.5,32,54.5z M32,4.5C16.8,4.5,4.5,16.8,4.5,32S16.8,59.5,32,59.5S59.5,47.2,59.5,32
		S47.2,4.5,32,4.5z"/>
	
		<linearGradient id="Top_Ring_1_" gradientUnits="userSpaceOnUse" x1="-135.5235" y1="461.3123" x2="-104.6036" y2="422.8459" gradientTransform="matrix(1 0 0 -1 152 474)">
		<stop  offset="0" style="stop-color:#B7FDE6"/>
		<stop  offset="0.3734" style="stop-color:#00F640"/>
		<stop  offset="1" style="stop-color:#00F631"/>
	</linearGradient>
	<path id="Top_Ring" style="fill:url(#Top_Ring_1_);" d="M32,6.6C18,6.6,6.6,18,6.6,32S18,57.4,32,57.4S57.4,46,57.4,32
		S46,6.6,32,6.6z M32,56.4C18.5,56.4,7.6,45.5,7.6,32S18.5,7.6,32,7.6S56.4,18.5,56.4,32S45.5,56.4,32,56.4z"/>
	
		<linearGradient id="night_1_" gradientUnits="userSpaceOnUse" x1="-135.5235" y1="461.3123" x2="-104.6036" y2="422.8459" gradientTransform="matrix(1 0 0 -1 152 474)">
		<stop  offset="0" style="stop-color:#6767F4"/>
		<stop  offset="0.3734" style="stop-color:#000DFC"/>
		<stop  offset="1" style="stop-color:#000DFC"/>
	</linearGradient>
	<path id="night" style="opacity:0.5;fill:url(#night_1_);" d="M32,6.6C18,6.6,6.6,18,6.6,32S18,57.4,32,57.4S57.4,46,57.4,32
		S46,6.6,32,6.6z M32,56.4C18.5,56.4,7.6,45.5,7.6,32S18.5,7.6,32,7.6S56.4,18.5,56.4,32S45.5,56.4,32,56.4z"/>
</g>
</svg>
