<?xml version="1.0" encoding="utf-8"?>
<!-- Generator: Adobe Illustrator 23.0.1, SVG Export Plug-In . SVG Version: 6.00 Build 0)  -->
<svg version="1.1" id="os_x5F_mac" xmlns="http://www.w3.org/2000/svg" xmlns:xlink="http://www.w3.org/1999/xlink" x="0px" y="0px"
	 viewBox="0 0 128 128" style="enable-background:new 0 0 128 128;" xml:space="preserve">
<g>
	<path id="icon" style="fill:#20201E;" d="M48.2,38.8c2.3,0,5.1,0.5,8.4,1.4c3.3,1,5.5,1.4,6.6,1.4c1.4,0,3.7-0.6,6.8-1.7
		c3.2-1,5.9-1.6,8.3-1.6c3.8,0,7.2,1,10.2,3.1c1.7,1.2,3.4,2.8,5,4.8c-2.5,2.1-4.3,4-5.5,5.6c-2.1,3-3.1,6.3-3.1,9.9
		c0,3.9,1.1,7.5,3.3,10.7c2.2,3.2,4.7,5.2,7.5,6c-1.2,3.8-3.1,7.8-5.9,12c-4.1,6.3-8.2,9.4-12.3,9.4c-1.6,0-3.9-0.5-6.7-1.5
		c-2.9-1-5.2-1.5-7.2-1.5c-1.9,0-4.2,0.5-6.8,1.6c-2.6,1.1-4.7,1.7-6.3,1.7c-4.9,0-9.6-4.1-14.4-12.4c-4.7-8.2-7-16.2-7-24.1
		c0-7.3,1.8-13.2,5.4-17.9C38.3,41.1,42.8,38.8,48.2,38.8 M77.6,20.5c0.1,0.4,0.2,0.7,0.2,1.1c0.1,0.3,0.1,0.6,0.1,0.9
		c0,2-0.5,4.2-1.4,6.5c-0.9,2.3-2.4,4.6-4.4,6.6c-1.8,1.7-3.5,2.9-5.2,3.4c-1.1,0.3-2.7,0.6-5,0.8c0.1-4.7,1.3-8.8,3.7-12.3
		C68.1,24.1,72.1,21.7,77.6,20.5"/>
</g>
</svg>
